<svg id="Livello_1" data-name="Livello 1" xmlns="http://www.w3.org/2000/svg" xmlns:xlink="http://www.w3.org/1999/xlink" viewBox="0 0 595.28 594.56"><defs><style>.cls-1{fill:none;}.cls-2{fill:#ed1c24;}.cls-3{fill:#f3f1ec;}.cls-4{fill:#3d5ea2;}.cls-5{fill:#010101;}.cls-6{clip-path:url(#clip-path);}.cls-7{clip-path:url(#clip-path-2);}</style><clipPath id="clip-path"><path id="_Tracciato_di_ritaglio_composto_" data-name="&lt;Tracciato di ritaglio composto&gt;" class="cls-1" d="M445.89,353.26s-1.09,11.82-9.76,25q-1.31,2-2.86,4a69.13,69.13,0,0,1-14.87,14.29c13.92-38.1,21.43-80.31,21.43-129.22l-.2-.07a467.94,467.94,0,0,1-139.21-21.05l-.31-.14a468,468,0,0,1-142,22,401.94,401.94,0,0,0,7.77,80.64c-18.49-18.61-18.15-33-18.15-33s-2.44,10.48,1.64,25.73c7.7,28.76,38.63,74.51,153.11,98.91,87.22,18.59,123.22-2.55,137.36-28.64C454.24,385.05,445.89,353.26,445.89,353.26Z"/></clipPath><clipPath id="clip-path-2"><path id="_Ritaglio_" data-name="&lt;Ritaglio&gt;" class="cls-1" d="M298.88,460c-55.43-12.89-91.06-30.71-113.9-49,24.08,57.74,63.33,106.36,113.71,155.7,33.24-32.44,61.64-64.6,84.08-99.25C362.41,470.13,335.18,468.45,298.88,460Z"/></clipPath></defs><title>logo final_trasparent</title><path id="_Tracciato_" data-name="&lt;Tracciato&gt;" class="cls-2" d="M245.48,264.75v0l-.09.12.18-.1Z"/><g id="_Gruppo_" data-name="&lt;Gruppo&gt;"><path id="_Tracciato_composto_" data-name="&lt;Tracciato composto&gt;" class="cls-3" d="M275.15,200.06a245.39,245.39,0,0,1,14.66-43.44c-13-2.26-23.64-5.57-32.5-10.1-.45-.23-.88-.47-1.32-.71-3.4,2.59-5.76,7.84-7,11.24,2.46-.07,4.93-.14,7.4-.25l3.74-.15-1.37,3.48c-1.61,4.08-3.16,8.24-4.66,12.27s-3.07,8.25-4.69,12.38l-.91,2.29-2.28-.93A97.57,97.57,0,0,1,231.14,178l.48,2.21-1.32.81,1.48.1.72,4.36-.87.74,1,0,1,6.35-3.4-8.09,1.22-.74h-1.5l1.89-1.31H229.5l-1.08-3.34c-11.2,22.27-12.59,49.33-3.88,72.18a82.64,82.64,0,0,1,20.68-42.86l1.08-1.17,1.5.51c1.94.66,3.61,1.36,5.22,2,1.29.54,2.52,1.05,3.87,1.54,3.07-1.83,6.09-3.73,9-5.57S272,201.94,275.15,200.06Zm-2.92-44.45a8.37,8.37,0,0,0,2.48.85L260.35,196.3l-4,3.09Zm-15.52,52.71-11.6-3.25a82.74,82.74,0,0,0-21.35,40.1s-.11-37.09,11.83-47.79l18.56,5.84,7.9-5.84L276.32,157s7,2.19,9.75,2c0,0-11,27.19-12.88,39.39Z"/><path id="_Tracciato_2" data-name="&lt;Tracciato&gt;" class="cls-3" d="M310.31,229.92l20,11.07a30.31,30.31,0,0,0-22.74-15.14c-11.34-1.33-23.81,3.36-33.36,12.56-5.5,5.29-9,11.29-10.17,17.1l10.85-6a25.25,25.25,0,0,1,4-7.12c3.85-4.81,8.25-8.61,14.35-9.93a.14.14,0,0,1,.11.25c-4.56,2.74-9.18,6.41-11.72,11.18-.44.83-.84,1.69-1.22,2.57l15-8.29a30.55,30.55,0,0,1,3.36-4.45c.09-.1.22,0,.2.12-.16.92-.37,1.81-.6,2.7Z"/><path id="_Tracciato_3" data-name="&lt;Tracciato&gt;" class="cls-3" d="M325.47,199.75l-.72-1.21c-3-.18-6-1.27-9-1.33a39.1,39.1,0,0,0-11.5,1.31c-.07,0-.12-.09-.05-.12a32.23,32.23,0,0,1,18.29-2.78,18,18,0,0,0-3.88-3,49,49,0,0,0-5-.29,53.74,53.74,0,0,0-10,1.17,48.47,48.47,0,0,0-10,3.37c.63.92,1.15,1.91,1.69,2.89.46.82.94,1.64,1.4,2.48A53.79,53.79,0,0,1,325.47,199.75Z"/><path id="_Tracciato_4" data-name="&lt;Tracciato&gt;" class="cls-3" d="M288.16,199.51l.42.75c.73,1.38,1.65,2.9,2.36,4.46l1.57-.76c-.47-.67-.87-1.42-1.21-2a13,13,0,0,1-1.61-3.25Z"/><path id="_Tracciato_5" data-name="&lt;Tracciato&gt;" class="cls-3" d="M261,114.09c-1.08.12-2.16.28-3.23.46.44,1.77.88,3.55,1.33,5.32a2.68,2.68,0,0,1,.1.89c15.38-2.46,31.93,1.65,43.37,11.44a52.77,52.77,0,0,1,15,21.79,9.6,9.6,0,0,0,3.57-1.85c-.07-.13-.12-.26-.19-.39-.2-.4-.41-.79-.63-1.18a4.58,4.58,0,0,1-.67.57,9.64,9.64,0,0,1-2.46,1.08,12.1,12.1,0,0,0,2.35-3c-1.46-2.45-3.13-4.8-4.79-7.11a110.91,110.91,0,0,0-8.1-10.58c-3.17-3.46-7-5.84-11-8.23,0,0,0-.06,0,0,8.89,3.57,14.82,9.11,20.46,16.75.79,1.07,1.57,2.15,2.34,3.23a57.36,57.36,0,0,0-14.77-17.47,60,60,0,0,0-36.11-12c-1.78,0-3.54.09-5.28.24a.64.64,0,0,0,0,.07,16.86,16.86,0,0,1,.69,5.72A35.22,35.22,0,0,1,261,114.09Z"/><path id="_Tracciato_6" data-name="&lt;Tracciato&gt;" class="cls-3" d="M294.18,203.22c.48-.21,1-.42,1.44-.61-.47-.88-.91-1.79-1.36-2.65s-1-1.84-1.37-2.78c-.74.34-1.47.69-2.2,1,.72.92,1.24,2,1.92,3C293.05,201.85,293.68,202.52,294.18,203.22Z"/><path id="_Tracciato_7" data-name="&lt;Tracciato&gt;" class="cls-3" d="M373.19,253.17c-3.77-5.66-6.69-11.1-11.9-15.66a60.15,60.15,0,0,0-16.41-10.38,65.28,65.28,0,0,0-17.68-4.44,51.54,51.54,0,0,1,15.52,8.46A48.24,48.24,0,0,1,353.82,244a58,58,0,0,1,5.85,12c1.51.85,3,1.66,4.54,2.42-.24-.9-.48-1.79-.75-2.68a78,78,0,0,0-6.77-16.23s0-.09.07-.05a55.44,55.44,0,0,1,9.51,14.89c.7,1.69,1.62,3.85,2.36,6.14a38.4,38.4,0,0,0,12.16,3.35,95.8,95.8,0,0,0-6.22-19.19s.05-.12.09-.06a55,55,0,0,1,9.58,18.08l.29.94a9.14,9.14,0,0,0,3.48-1.44c-4-10.58-10.18-21.46-19.65-30-10.37-9.33-24-14.2-36.59-13.78a65,65,0,0,1,15.3,5.58,54.08,54.08,0,0,1,16.52,12.78c4,4.7,8.38,10.32,9.7,16.43A.05.05,0,0,1,373.19,253.17Z"/><path id="_Tracciato_8" data-name="&lt;Tracciato&gt;" class="cls-3" d="M335.18,235.21a33.27,33.27,0,0,1,13.55,13.16c.23.4.47.84.72,1.3,2.54,1.68,5.22,3.38,7.95,5a42.17,42.17,0,0,0-5.35-9.31,53.3,53.3,0,0,0-11.42-10.61,51.93,51.93,0,0,0-15.43-7.3c-.27-.08-.55-.15-.83-.21a33,33,0,0,1,10.5,11.91c2.07,1.61,4.92,3.78,8.25,6.17a52,52,0,0,0-8-10A.06.06,0,0,1,335.18,235.21Z"/><path id="_Tracciato_9" data-name="&lt;Tracciato&gt;" class="cls-3" d="M321.05,155.66a6.93,6.93,0,0,1-2.51,1.3c.22.7.42,1.41.6,2.12a5.83,5.83,0,0,0,3.25-1.13,5.89,5.89,0,0,0,.74-.67c-.27-.86-.56-1.71-.88-2.55C321.86,155.06,321.45,155.37,321.05,155.66Z"/><path id="_Tracciato_10" data-name="&lt;Tracciato&gt;" class="cls-4" d="M258.36,109.52c-.44-2.37-.92-4.73-1.47-7.07a192.34,192.34,0,0,0-7-23.5,182,182,0,0,0-10.57-23.5c-4-7.38-8.93-14.1-13.13-21.34a.08.08,0,0,1,.13-.1c6.25,5.65,11.41,13.33,15.9,20.42a157.06,157.06,0,0,1,12,22.7,153.92,153.92,0,0,1,8.06,24.46q.85,3.68,1.54,7.38c1.26-.08,2.52-.12,3.8-.12s2.7.05,4.05.13a203.81,203.81,0,0,0-2.08-22.19C267.21,71.14,262.33,56.55,256,42.1a.15.15,0,0,1,.26-.15c8.17,13.5,13.79,29,17.26,44.38a133.74,133.74,0,0,1,3.08,23.15c1.62.22,3.24.5,4.83.84.17-1.36.33-2.72.45-4.08a96.82,96.82,0,0,0-.46-20c0-.12.18-.14.21,0a113,113,0,0,1,3.17,20c.12,1.65.19,3.3.2,5a64.5,64.5,0,0,1,6.3,2.08c.23-1.43.45-2.85.65-4.28a106.87,106.87,0,0,0-.27-29.62c0-.26.32-.37.39-.11a105,105,0,0,1,4,29c0,2.31-.12,4.61-.34,6.89a59.52,59.52,0,0,1,6.81,3.8A96.64,96.64,0,0,0,305,102.05a93.76,93.76,0,0,0-6-39s.05-.07.07,0a84.18,84.18,0,0,1,10.08,39.06,82.88,82.88,0,0,1-2.28,20.08q2.15,1.68,4.14,3.59c2.57-4.72,3.6-9.79,5.31-14.83.09-.24.51-.3.56,0,.85,5.57-.8,11.33-2.77,16.53l-.41,1c1,1.12,2,2.27,3,3.47l.25-.15a29.78,29.78,0,0,0,8.14-7.06.14.14,0,0,1,.24.14,30.73,30.73,0,0,1-6.71,9.62q1.35,1.89,2.56,3.88l.75-.54a38.82,38.82,0,0,0,6.71-6.35c4.33-5.27,6.63-11.18,8.24-17.74,0-.1.2-.11.21,0,1,6.76-1.2,14.15-4.88,19.85a34.58,34.58,0,0,1-8.48,9.32,71.22,71.22,0,0,1,3.7,8.62c2.2.42,4.54,1.66,6.43,2.24,3.66,1.12,7.39,1.5,11.09,2.38a.24.24,0,0,1,0,.45c-3.8,1.34-8.22,1.26-12.18.73a34.66,34.66,0,0,1-3.76-.63c.22.85.42,1.7.61,2.55,2.17,3.06,4,6.38,6.09,9.48a126.71,126.71,0,0,0,18.81,21.49c1.88,1.67,3.82,3.29,5.8,4.83.35.27.72.54,1.08.8-1-3.27-1.8-6.52-2.47-9.72-1.11-1-2.18-2-3.24-3-4.6-4.37-8.9-8.64-12.29-14-.09-.14.12-.29.24-.18,4.45,4.33,8.95,9,14.18,12.39l.22.14c-.62-3.6-1.1-7.07-1.48-10.32-.57-4.84-1-9.77-1.44-14.54-.5-5.61-1-11.32-1.76-17-4.32,3-10.12,4.47-14.42,3.47-.09,0-.08-.13,0-.16,3.8-1.29,7.4-2.52,10.74-4.84a21.1,21.1,0,0,0,3.08-2.72c-.56-3.64-1.22-7.26-2.06-10.82a110.6,110.6,0,0,0-3.12-10.64,52,52,0,0,1-3.76,11.34c-.05.11-.2,0-.18-.07a63,63,0,0,0,1.21-18.35,120.13,120.13,0,0,0-16.52-27.72c.07,1.2.13,2.4.15,3.59A80.26,80.26,0,0,1,323,112a.15.15,0,0,1-.28-.08,95.45,95.45,0,0,0,2.06-28.6c-.23-3.32-.6-6.62-1.16-9.9a128.16,128.16,0,0,0-14-13.5,118.92,118.92,0,0,1,3.88,21.83c0,.06-.09.07-.1,0a107.71,107.71,0,0,0-6.58-24.09,129.62,129.62,0,0,0-11.92-8.28c-2.27-1.4-4.6-2.74-7-4,3.21,6.75,5.19,13.85,7.41,21,0,.13-.16.18-.21,0-3-7.65-7.62-14.77-12-21.71-.54-.86-1.09-1.7-1.64-2.55A142.93,142.93,0,0,0,266.19,36c.79,1.55,1.55,3.12,2.26,4.7,4.51,10.12,7.5,21.18,9.68,32a.08.08,0,0,1-.16,0,150.53,150.53,0,0,0-13.42-30.47q-2.34-4.2-4.83-8.32a155.47,155.47,0,0,0-21.61-4.56,56.66,56.66,0,0,1,8.4,15.7c0,.13-.14.25-.22.14a121.39,121.39,0,0,0-12.19-14c-.93-.86-1.84-1.74-2.76-2.61q-7.8-.75-15.79-.75c-2.63,0-5.29.07-7.94.19,22.51,23.13,37.56,52.38,42.75,83.17A59.6,59.6,0,0,1,258.36,109.52Z"/><path id="_Tracciato_11" data-name="&lt;Tracciato&gt;" class="cls-3" d="M254.33,144.84c-.62-.38-1.23-.77-1.83-1.18-3.43,3.52-5.91,8.67-7.63,13.49l2.56-.06C249.3,150.13,252.67,146.36,254.33,144.84Z"/><path id="_Tracciato_12" data-name="&lt;Tracciato&gt;" class="cls-3" d="M285.13,194.63c.13.19.27.38.39.57.35-.82.7-1.63,1-2.45,2.39-5.66,4.78-11.15,6.77-17a.16.16,0,0,1,.31.09c-1.36,5.95-2.54,12-4.11,17.91-.23.86-.45,1.83-.68,2.85,4.87-3.49,11.25-5.71,16.62-6.9l1.29-.29c2.07-6.21,4.68-12.61,3.25-19.21,0-.12.15-.2.2-.08,2.82,6.07,1.31,12.51-.27,18.7.47-.07.94-.14,1.41-.19a47.49,47.49,0,0,0,2.82-11.51,25,25,0,0,0-.28-6,.83.83,0,0,1,0-.15,28.76,28.76,0,0,0-5-8.87,93.27,93.27,0,0,0-11.41-7.21l-.05,0c-2.08,8-4.85,15.88-7.33,23.76-1.32,4.16-2.61,8.32-3.94,12.48C285.79,192.16,285.5,193.4,285.13,194.63Z"/><path id="_Tracciato_13" data-name="&lt;Tracciato&gt;" class="cls-3" d="M254.19,138.41a102,102,0,0,1,43.59,11.15h.46c1.77,0,3.71-.63,4.61-2.17a4,4,0,0,0,.44-1.24c-1.18-1.66-2.41-3.3-3.71-4.86a39.4,39.4,0,0,0-13.71-10.72c-.07,0,0-.14.06-.12,5.86,1.15,10.87,4.37,15.13,8.49.16.15.31.31.46.47a23.51,23.51,0,0,0-2.34-3.67c-11.22-9.48-27.78-13-42.6-9.52a13.24,13.24,0,0,0-1.41,3.19c-.51,2.7.17,5.23.41,7.89a0,0,0,0,1-.08,0,15.18,15.18,0,0,1-2.14-8.92,12.57,12.57,0,0,1,.27-1.39c-.58.18-1.17.37-1.75.57a7.74,7.74,0,0,0-.76,6.39A10,10,0,0,0,254.19,138.41Z"/><path id="_Tracciato_14" data-name="&lt;Tracciato&gt;" class="cls-3" d="M253.93,115.35q.82,3,1.67,6.11c.88-.2,1.76-.38,2.65-.54l-1.95-6.1C255.5,115,254.71,115.15,253.93,115.35Z"/><path id="_Tracciato_15" data-name="&lt;Tracciato&gt;" class="cls-3" d="M249.2,116.74l-1.73.6a52.35,52.35,0,0,0,1.74,6q2.32-.85,4.72-1.49l-1.62-6.09C251.26,116.07,250.22,116.38,249.2,116.74Z"/><path id="_Tracciato_16" data-name="&lt;Tracciato&gt;" class="cls-3" d="M222.89,155.47l2.08-2.09-2.49.87-1.22-10.56,5.63,10-1.45,2,1.8-.46,1,2.36,4.71-.16a108.55,108.55,0,0,1,11.46-20.83,40.85,40.85,0,0,1-4.64-6.4c-7.4,6-12.74,16.35-12.74,16.35a56.32,56.32,0,0,1,11.23-19.16,37,37,0,0,1-2.28-6.07,86.14,86.14,0,0,0-26.38,84.3,107.11,107.11,0,0,1,14.5-45.72Z"/><path id="_Tracciato_17" data-name="&lt;Tracciato&gt;" class="cls-1" d="M286.07,159.07c-2.74.16-9.75-2-9.75-2l-14.27,40.34-7.9,5.84-18.56-5.84c-11.94,10.7-11.83,47.79-11.83,47.79a82.74,82.74,0,0,1,21.35-40.1l11.6,3.25,16.48-9.86C275.05,186.26,286.07,159.07,286.07,159.07Z"/><path id="_Tracciato_18" data-name="&lt;Tracciato&gt;" class="cls-1" d="M274.71,156.46a8.37,8.37,0,0,1-2.48-.85l-15.88,43.78,4-3.09Z"/></g><g id="_Gruppo_2" data-name="&lt;Gruppo&gt;"><path id="_Tracciato_19" data-name="&lt;Tracciato&gt;" class="cls-5" d="M157.93,268.08h.16c0-.07,0-.14,0-.21Z"/><path id="_Tracciato_20" data-name="&lt;Tracciato&gt;" class="cls-3" d="M298.88,460c-55.43-12.89-91.06-30.71-113.9-49,24.08,57.74,63.33,106.36,113.71,155.7,33.24-32.44,61.64-64.6,84.08-99.25C362.41,470.13,335.18,468.45,298.88,460Z"/><path id="_Tracciato_composto_2" data-name="&lt;Tracciato composto&gt;" class="cls-4" d="M445.89,353.26s-1.09,11.82-9.76,25q-1.31,2-2.86,4a69.13,69.13,0,0,1-14.87,14.29c13.92-38.1,21.43-80.31,21.43-129.22l-.2-.07a467.94,467.94,0,0,1-139.21-21.05l-.31-.14a468,468,0,0,1-142,22,401.94,401.94,0,0,0,7.77,80.64c-18.49-18.61-18.15-33-18.15-33s-2.44,10.48,1.64,25.73c7.7,28.76,38.63,74.51,153.11,98.91,87.22,18.59,123.22-2.55,137.36-28.64C454.24,385.05,445.89,353.26,445.89,353.26Z"/></g><g id="_Gruppo_clip_" data-name="&lt;Gruppo clip&gt;"><g class="cls-6"><g id="_Gruppo_3" data-name="&lt;Gruppo&gt;"><g id="_Gruppo_4" data-name="&lt;Gruppo&gt;"><path id="_Tracciato_21" data-name="&lt;Tracciato&gt;" class="cls-3" d="M429.94,550.35a3.85,3.85,0,1,1,3.84,3.79A3.83,3.83,0,0,1,429.94,550.35Z"/><g id="_Gruppo_5" data-name="&lt;Gruppo&gt;"><polygon id="_Tracciato_22" data-name="&lt;Tracciato&gt;" class="cls-3" points="422.99 376.48 414.6 381.33 406.22 386.17 406.22 376.48 406.22 366.79 414.6 371.63 422.99 376.48"/></g><path id="_Tracciato_23" data-name="&lt;Tracciato&gt;" class="cls-3" d="M326.74,284.93a3.85,3.85,0,1,1,3.86,3.79A3.83,3.83,0,0,1,326.74,284.93Z"/><g id="_Gruppo_6" data-name="&lt;Gruppo&gt;"><path id="_Tracciato_composto_3" data-name="&lt;Tracciato composto&gt;" class="cls-3" d="M71.26,361.24A16.35,16.35,0,1,0,54.7,344.9,16.47,16.47,0,0,0,71.26,361.24Zm0-31.75A15.41,15.41,0,1,1,55.65,344.9,15.52,15.52,0,0,1,71.27,329.49Z"/><path id="_Tracciato_composto_4" data-name="&lt;Tracciato composto&gt;" class="cls-3" d="M390.34,488.83a13,13,0,1,0-13,12.78A12.89,12.89,0,0,0,390.34,488.83Zm-23.52,0a10.57,10.57,0,1,1,10.56,10.43A10.51,10.51,0,0,1,366.82,488.83Z"/><path id="_Tracciato_24" data-name="&lt;Tracciato&gt;" class="cls-3" d="M28,358.55a5.72,5.72,0,1,0,5.8,5.73A5.76,5.76,0,0,0,28,358.55Z"/><path id="_Tracciato_composto_5" data-name="&lt;Tracciato composto&gt;" class="cls-3" d="M-91.15,329.85a5.76,5.76,0,0,0,5.8-5.73,5.43,5.43,0,0,0-.14-1.22H1.6l17.69,20.82H-13.65a3.83,3.83,0,0,0-3.63-2.61,3.81,3.81,0,0,0-3.83,3.79,3.81,3.81,0,0,0,3.83,3.78,3.82,3.82,0,0,0,3.63-2.61H46.9a24.42,24.42,0,0,0,48.74,0h26.1l30.87,30.45h54.25a5.82,5.82,0,0,0,11.35,0h25l-21.85,21.56H154.13a3.8,3.8,0,1,0,0,2.36h68.24l24.24-23.92H267a61.84,61.84,0,0,0,10.83,33.82l0,0-23.14,22.82,1.67,1.65-30.12-17.16L195.69,435v34.73l30.48,17.36,30.49-17.36V435l-.34-.2,22.84-22.53A63.84,63.84,0,0,0,329.4,438.1v11.44l-19.74,11.24v8.72L292.2,486.73V457.65l7.21-7.11-1.68-1.67-7.92,7.81v32.4l-16.88,16.66V547.8l-14.26,14.07a3.72,3.72,0,0,0-1.73-.43,3.8,3.8,0,1,0,3.85,3.8,3.77,3.77,0,0,0-.43-1.71l14.95-14.76v-42l34.35-33.88v10.62l-27.78,27.4V579h2.39V511.84l26.78-26.42,18.35,10.46v24.31L357,547.42v26a5.71,5.71,0,0,0,0,11.2v28.64a3.85,3.85,0,1,0,2.38,0V584.62a5.7,5.7,0,0,0,0-11.19v-27l-27.6-27.23V495.88l19.74-11.25V460.78l-13.07-7.45V429.27a55.4,55.4,0,0,0,29.7-14l10.21,10.06h42.91a3.79,3.79,0,1,0,.21-2.35H379.35l-9.47-9.35a53.87,53.87,0,0,0,0-76.51l4.26-4.2a59.83,59.83,0,0,1,17.71,42.46h2.39a62.15,62.15,0,0,0-18.42-44.13l52.85-52.13a3.88,3.88,0,0,0,1.73.42,3.8,3.8,0,1,0-3.85-3.8,3.77,3.77,0,0,0,.43,1.71l-52.87,52.16a63.9,63.9,0,0,0-43.51-17v2.35a61.49,61.49,0,0,1,41.82,16.34l-4.26,4.2a55.65,55.65,0,0,0-75.74.57l-19.57-19.31H239.22l-41.64-41.08a3.89,3.89,0,0,0,.22-1.24,3.85,3.85,0,1,0-1.68,3.13l39.72,39.19h-9.69l-41.58-41a3.85,3.85,0,1,0-3.6,2.49,3.94,3.94,0,0,0,2.12-.63l39.68,39.15h-48.6a3.8,3.8,0,1,0,0,2.35h51l.18.18.18-.18h12.72l.17.18.18-.18h33.28l18.88,18.63a53.89,53.89,0,0,0-15.37,37.65c0,29.65,24.13,53.83,54,54.46v5.95c-33.23-.64-60.07-27.48-60.06-60.4v-1.18H218.21a5.81,5.81,0,0,0-11.35,0H153.59l-30.86-30.45H95.64a24.42,24.42,0,0,0-48.74,0H22.41L2.71,320.54H-86.63a5.8,5.8,0,0,0-4.52-2.15,5.76,5.76,0,0,0-5.8,5.72A5.76,5.76,0,0,0-91.15,329.85ZM254.27,468.36l-28.1,16-28.09-16v-32l28.09-16,28.1,16Zm94.87,14.91L330.6,493.84,312,483.28V462.14l18.56-10.57,18.54,10.57ZM336.07,452l-4.28-2.45V429.8c1.44,0,2.87-.1,4.28-.24Zm-4.28-77.12-32.12-31.69A45.14,45.14,0,0,1,330.6,331c24.8,0,45,19.91,45,44.38,0,24.07-19.54,43.71-43.78,44.34Zm-2.39,1v43.86c-24.25-.63-43.78-20.28-43.78-44.34A43.89,43.89,0,0,1,298,344.84Zm1.2-52.62c29.13,0,52.84,23.39,52.84,52.14,0,28.35-23.07,51.47-51.65,52.1v-6.82c24.77-.63,44.74-20.69,44.74-45.28,0-25-20.61-45.32-45.93-45.32A46.09,46.09,0,0,0,299,342.51l-4.88-4.82A53,53,0,0,1,330.6,323.21Zm-52.85,52.14a51.61,51.61,0,0,1,14.67-36l4.89,4.82a44.83,44.83,0,0,0-12.65,31.18c0,24.59,20,44.65,44.74,45.28v6.82C300.81,426.82,277.75,403.69,277.75,375.35ZM71.27,323.18a21.72,21.72,0,1,1-22,21.72A21.89,21.89,0,0,1,71.27,323.18Z"/><path id="_Tracciato_25" data-name="&lt;Tracciato&gt;" class="cls-3" d="M314,545.49a5.72,5.72,0,1,0-5.79-5.72A5.76,5.76,0,0,0,314,545.49Z"/><path id="_Tracciato_26" data-name="&lt;Tracciato&gt;" class="cls-3" d="M314,527.94a5.73,5.73,0,1,0-5.79-5.72A5.78,5.78,0,0,0,314,527.94Z"/><path id="_Tracciato_27" data-name="&lt;Tracciato&gt;" class="cls-3" d="M182.79,455.63a5.72,5.72,0,1,0,5.81,5.72A5.77,5.77,0,0,0,182.79,455.63Z"/><path id="_Tracciato_28" data-name="&lt;Tracciato&gt;" class="cls-3" d="M182.79,449.52A5.72,5.72,0,1,0,177,443.8,5.76,5.76,0,0,0,182.79,449.52Z"/><path id="_Tracciato_29" data-name="&lt;Tracciato&gt;" class="cls-3" d="M381.23,488.83a3.85,3.85,0,1,0-3.85,3.8A3.82,3.82,0,0,0,381.23,488.83Z"/><path id="_Tracciato_composto_6" data-name="&lt;Tracciato composto&gt;" class="cls-3" d="M330.6,297.71a12.78,12.78,0,1,0-13-12.78A12.87,12.87,0,0,0,330.6,297.71Zm0-23.2A10.42,10.42,0,1,1,320,284.93,10.5,10.5,0,0,1,330.6,274.51Z"/><path id="_Tracciato_composto_7" data-name="&lt;Tracciato composto&gt;" class="cls-3" d="M420.83,550.35a13,13,0,1,0,12.95-12.77A12.88,12.88,0,0,0,420.83,550.35Zm13-10.42a10.42,10.42,0,1,1-10.57,10.42A10.5,10.5,0,0,1,433.79,539.93Z"/><path id="_Tracciato_composto_8" data-name="&lt;Tracciato composto&gt;" class="cls-3" d="M133.68,308a12.78,12.78,0,1,0-13-12.78A12.89,12.89,0,0,0,133.68,308Zm0-23.2a10.42,10.42,0,1,1-10.56,10.42A10.5,10.5,0,0,1,133.68,284.8Z"/><path id="_Tracciato_30" data-name="&lt;Tracciato&gt;" class="cls-3" d="M133.69,299a3.8,3.8,0,1,0-3.85-3.8A3.82,3.82,0,0,0,133.69,299Z"/><path id="_Tracciato_31" data-name="&lt;Tracciato&gt;" class="cls-3" d="M121.48,331.72a3.88,3.88,0,0,0,1.73-.42l34.62,34.15H267.27V363.1h-45l-19.85-19.58H166.68v2.35h34.7l17.46,17.23h-60L124.9,329.63a3.85,3.85,0,1,0-3.42,2.09Z"/><path id="_Tracciato_32" data-name="&lt;Tracciato&gt;" class="cls-3" d="M447.55,616.86a3.91,3.91,0,0,0-1.61.35l-46.22-45.6L398,573.28l46.17,45.54a3.66,3.66,0,0,0-.5,1.83,3.85,3.85,0,1,0,3.85-3.79Z"/><path id="_Tracciato_composto_9" data-name="&lt;Tracciato composto&gt;" class="cls-3" d="M399.93,676.84V634.93L369.4,604.81V541.14l-30.78-30.36-1.69,1.66L367,542.12V698.3l-19.74,11.24v23.85L367,744.64v106h2.39v-106l6.28-3.58v60.46a3.78,3.78,0,0,0-2.66,3.59,3.85,3.85,0,0,0,7.7,0,3.77,3.77,0,0,0-2.65-3.59V739.7l11.07-6.31V709.54L369.4,698.3V608.14l28.15,27.76v41a3.85,3.85,0,1,0,2.38-.09ZM386.76,732l-10.56,6h-.52v.29l-7.47,4.26L349.66,732V710.9l18.55-10.57,18.55,10.57Z"/><polygon id="_Tracciato_33" data-name="&lt;Tracciato&gt;" class="cls-3" points="3.47 364.02 9.29 367.5 15.09 370.98 15.24 364.27 15.39 357.57 9.43 360.8 3.47 364.02"/><polygon id="_Tracciato_34" data-name="&lt;Tracciato&gt;" class="cls-3" points="194.37 492.38 200.19 495.86 206 499.34 206.15 492.63 206.3 485.93 200.34 489.15 194.37 492.38"/><polygon id="_Tracciato_35" data-name="&lt;Tracciato&gt;" class="cls-3" points="419.36 478.33 419.21 485.04 419.06 491.74 425.02 488.51 430.98 485.29 425.17 481.81 419.36 478.33"/><path id="_Tracciato_composto_10" data-name="&lt;Tracciato composto&gt;" class="cls-3" d="M202.64,438.68l-.24.13v27.08l23.77,13.55L249.71,466l.24-.14V438.81l-23.78-13.54ZM249,465.35l-22.82,13-22.82-13v-26l22.82-13,22.82,13Z"/><polygon id="_Tracciato_36" data-name="&lt;Tracciato&gt;" class="cls-3" points="307.14 310.03 307.14 300.16 298.48 295.22 289.81 300.16 289.81 310.03 298.47 314.96 307.14 310.03"/><polygon id="_Tracciato_37" data-name="&lt;Tracciato&gt;" class="cls-3" points="230.86 519.11 230.86 525.32 236.31 528.43 241.76 525.32 241.76 519.11 236.31 516 230.86 519.11"/><polygon id="_Tracciato_38" data-name="&lt;Tracciato&gt;" class="cls-3" points="47.71 393.45 47.71 401.95 55.17 406.2 62.63 401.95 62.63 393.45 55.17 389.2 47.71 393.45"/><path id="_Tracciato_composto_11" data-name="&lt;Tracciato composto&gt;" class="cls-3" d="M315.31,481.41l15.29,8.71,15.28-8.71V464l-15.28-8.7L315.31,464Zm.95-16.87,14.34-8.16,14.33,8.16v16.32L330.6,489l-14.34-8.17Z"/><path id="_Tracciato_39" data-name="&lt;Tracciato&gt;" class="cls-3" d="M291.35,511.61V619.28a3.86,3.86,0,1,0,2.39,0V511.61Z"/><path id="_Tracciato_40" data-name="&lt;Tracciato&gt;" class="cls-3" d="M342.62,503.91l91.76,90.52a3.74,3.74,0,0,0-.6,2,3.85,3.85,0,1,0,3.85-3.79,3.93,3.93,0,0,0-1.41.27l-69.34-68.41h24l17.61,17.37,1.68-1.67-18.3-18.05H364.49l-20.18-19.91Z"/><polygon id="_Tracciato_41" data-name="&lt;Tracciato&gt;" class="cls-3" points="248.08 339.9 248.23 333.2 242.27 336.43 236.31 339.66 242.12 343.14 247.93 346.61 248.08 339.9"/><polygon id="_Tracciato_42" data-name="&lt;Tracciato&gt;" class="cls-3" points="264.34 339.9 264.49 333.2 258.53 336.43 252.57 339.66 258.38 343.13 264.19 346.61 264.34 339.9"/><polygon id="_Tracciato_43" data-name="&lt;Tracciato&gt;" class="cls-3" points="381.75 284.93 378.5 279.01 375.25 273.08 371.75 278.86 368.25 284.64 375 284.78 381.75 284.93"/><polygon id="_Tracciato_44" data-name="&lt;Tracciato&gt;" class="cls-3" points="381.75 301.09 378.5 295.16 375.26 289.24 371.75 295.02 368.25 300.79 375 300.94 381.75 301.09"/><polygon id="_Tracciato_45" data-name="&lt;Tracciato&gt;" class="cls-3" points="26.16 337.31 28.01 335.82 7.83 311.31 -65.66 311.31 -65.66 313.66 6.69 313.66 26.16 337.31"/><polygon id="_Tracciato_46" data-name="&lt;Tracciato&gt;" class="cls-3" points="305.38 574.09 305.38 583.96 314.05 588.89 322.71 583.96 322.71 574.09 314.05 569.15 305.38 574.09"/><polygon id="_Tracciato_47" data-name="&lt;Tracciato&gt;" class="cls-3" points="38.44 325.16 47.1 320.22 47.1 310.35 38.44 305.42 29.77 310.35 29.78 320.22 38.44 325.16"/><path id="_Tracciato_composto_12" data-name="&lt;Tracciato composto&gt;" class="cls-3" d="M122.67,414V368.74L82.91,391.38Zm-2.38-22.64V410l-32.6-18.57,32.6-18.56Z"/></g><path id="_Tracciato_48" data-name="&lt;Tracciato&gt;" class="cls-3" d="M62,344.9a9.32,9.32,0,1,1,9.32,9.19A9.24,9.24,0,0,1,62,344.9Z"/><path id="_Tracciato_49" data-name="&lt;Tracciato&gt;" class="cls-3" d="M314.33,375.35a16.26,16.26,0,1,1,16.27,16A16.16,16.16,0,0,1,314.33,375.35Z"/><polygon id="_Tracciato_50" data-name="&lt;Tracciato&gt;" class="cls-3" points="212.56 444.6 226.17 436.84 239.79 444.6 239.79 460.11 226.17 467.87 212.56 460.11 212.56 444.6"/><polygon id="_Tracciato_51" data-name="&lt;Tracciato&gt;" class="cls-3" points="323.92 468.91 330.6 465.11 337.26 468.91 337.26 476.5 330.6 480.3 323.92 476.5 323.92 468.91"/><polygon id="_Tracciato_52" data-name="&lt;Tracciato&gt;" class="cls-3" points="101.89 391.38 108.03 387.89 114.17 384.39 114.17 391.38 114.17 398.38 108.03 394.88 101.89 391.38"/></g></g><path id="_Tracciato_53" data-name="&lt;Tracciato&gt;" class="cls-3" d="M157.93,268.08h.16c0-.07,0-.14,0-.21Z"/><path id="_Tracciato_54" data-name="&lt;Tracciato&gt;" class="cls-3" d="M298.88,460c-55.43-12.89-91.06-30.71-113.9-49,24.08,57.74,63.33,106.36,113.71,155.7,33.24-32.44,61.64-64.6,84.08-99.25C362.41,470.13,335.18,468.45,298.88,460Z"/></g></g><g id="_Gruppo_clip_2" data-name="&lt;Gruppo clip&gt;"><g class="cls-7"><g id="_Gruppo_7" data-name="&lt;Gruppo&gt;"><g id="_Gruppo_8" data-name="&lt;Gruppo&gt;"><path id="_Tracciato_55" data-name="&lt;Tracciato&gt;" class="cls-4" d="M424.94,550.35a3.85,3.85,0,1,1,3.84,3.79A3.83,3.83,0,0,1,424.94,550.35Z"/><g id="_Gruppo_9" data-name="&lt;Gruppo&gt;"><polygon id="_Tracciato_56" data-name="&lt;Tracciato&gt;" class="cls-4" points="417.99 376.48 409.6 381.33 401.22 386.17 401.22 376.48 401.22 366.79 409.6 371.63 417.99 376.48"/></g><path id="_Tracciato_57" data-name="&lt;Tracciato&gt;" class="cls-4" d="M321.74,284.93a3.85,3.85,0,1,1,3.86,3.79A3.83,3.83,0,0,1,321.74,284.93Z"/><g id="_Gruppo_10" data-name="&lt;Gruppo&gt;"><path id="_Tracciato_composto_13" data-name="&lt;Tracciato composto&gt;" class="cls-4" d="M66.26,361.24A16.35,16.35,0,1,0,49.7,344.9,16.47,16.47,0,0,0,66.26,361.24Zm0-31.75A15.41,15.41,0,1,1,50.65,344.9,15.52,15.52,0,0,1,66.27,329.49Z"/><path id="_Tracciato_composto_14" data-name="&lt;Tracciato composto&gt;" class="cls-4" d="M385.34,488.83a13,13,0,1,0-13,12.78A12.89,12.89,0,0,0,385.34,488.83Zm-23.52,0a10.57,10.57,0,1,1,10.56,10.43A10.51,10.51,0,0,1,361.82,488.83Z"/><path id="_Tracciato_58" data-name="&lt;Tracciato&gt;" class="cls-4" d="M23,358.55a5.72,5.72,0,1,0,5.8,5.73A5.76,5.76,0,0,0,23,358.55Z"/><path id="_Tracciato_composto_15" data-name="&lt;Tracciato composto&gt;" class="cls-4" d="M251.29,434.78m.37.21-.34-.2,22.84-22.53A63.84,63.84,0,0,0,324.4,438.1v11.44l-19.74,11.24v8.72L287.2,486.73V457.65l7.21-7.11-1.68-1.67-7.92,7.81v32.4l-16.88,16.66V547.8l-14.26,14.07a3.72,3.72,0,0,0-1.73-.43,3.8,3.8,0,1,0,3.85,3.8,3.77,3.77,0,0,0-.43-1.71l14.95-14.76v-42l34.35-33.88v10.62l-27.78,27.4V579h2.39V511.84l26.78-26.42,18.35,10.46v24.31L352,547.42v26a5.71,5.71,0,0,0,0,11.2v28.64a3.85,3.85,0,1,0,2.38,0V584.62a5.7,5.7,0,0,0,0-11.19v-27l-27.6-27.23V495.88l19.74-11.25V460.78l-13.07-7.45V429.27a55.4,55.4,0,0,0,29.7-14l10.21,10.06h42.91a3.79,3.79,0,1,0,.21-2.35H374.35l-9.47-9.35a53.87,53.87,0,0,0,0-76.51l4.26-4.2a59.83,59.83,0,0,1,17.71,42.46h2.39a62.15,62.15,0,0,0-18.42-44.13l52.85-52.13a3.88,3.88,0,0,0,1.73.42,3.8,3.8,0,1,0-3.85-3.8,3.77,3.77,0,0,0,.43,1.71l-52.87,52.16a63.9,63.9,0,0,0-43.51-17v2.35a61.49,61.49,0,0,1,41.82,16.34l-4.26,4.2a55.65,55.65,0,0,0-75.74.57l-19.57-19.31H234.22l-41.64-41.08a3.89,3.89,0,0,0,.22-1.24,3.85,3.85,0,1,0-1.68,3.13l39.72,39.19h-9.69l-41.58-41a3.85,3.85,0,1,0-3.6,2.49,3.94,3.94,0,0,0,2.12-.63l39.68,39.15h-48.6a3.8,3.8,0,1,0,0,2.35h51l.18.18.18-.18h12.72l.17.18.18-.18h33.28l18.88,18.63a53.89,53.89,0,0,0-15.37,37.65c0,29.65,24.13,53.83,54,54.46v5.95c-33.23-.64-60.07-27.48-60.06-60.4v-1.18H213.21a5.81,5.81,0,0,0-11.35,0H148.59l-30.86-30.45H90.64a24.42,24.42,0,0,0-48.74,0H17.41l-19.7-23.18H-91.63a5.8,5.8,0,0,0-4.52-2.15,5.76,5.76,0,0,0-5.8,5.72,5.76,5.76,0,0,0,5.8,5.73,5.76,5.76,0,0,0,5.8-5.73,5.43,5.43,0,0,0-.14-1.22H-3.4l17.69,20.82H-18.65a3.83,3.83,0,0,0-3.63-2.61,3.81,3.81,0,0,0-3.83,3.79,3.81,3.81,0,0,0,3.83,3.78,3.82,3.82,0,0,0,3.63-2.61H41.9a24.42,24.42,0,0,0,48.74,0h26.1l30.87,30.45h54.25a5.82,5.82,0,0,0,11.35,0h25l-21.85,21.56H149.13a3.8,3.8,0,1,0,0,2.36h68.24l24.24-23.92H262a61.84,61.84,0,0,0,10.83,33.82l0,0m71.38,73L325.6,493.84,307,483.28V462.14l18.56-10.57,18.54,10.57ZM331.07,452l-4.28-2.45V429.8c1.44,0,2.87-.1,4.28-.24Zm-4.28-77.12-32.12-31.69A45.14,45.14,0,0,1,325.6,331c24.8,0,45,19.91,45,44.38,0,24.07-19.54,43.71-43.78,44.34Zm-2.39,1v43.86c-24.25-.63-43.78-20.28-43.78-44.34A43.89,43.89,0,0,1,293,344.84Zm1.2-52.62c29.13,0,52.84,23.39,52.84,52.14,0,28.35-23.07,51.47-51.65,52.1v-6.82c24.77-.63,44.74-20.69,44.74-45.28,0-25-20.61-45.32-45.93-45.32A46.09,46.09,0,0,0,294,342.51l-4.88-4.82A53,53,0,0,1,325.6,323.21Zm-52.85,52.14a51.61,51.61,0,0,1,14.67-36l4.89,4.82a44.83,44.83,0,0,0-12.65,31.18c0,24.59,20,44.65,44.74,45.28v6.82C295.81,426.82,272.75,403.69,272.75,375.35ZM66.27,323.18a21.72,21.72,0,1,1-22,21.72A21.89,21.89,0,0,1,66.27,323.18Z"/><path id="_Tracciato_59" data-name="&lt;Tracciato&gt;" class="cls-4" d="M309,545.49a5.72,5.72,0,1,0-5.79-5.72A5.76,5.76,0,0,0,309,545.49Z"/><path id="_Tracciato_60" data-name="&lt;Tracciato&gt;" class="cls-4" d="M309,527.94a5.73,5.73,0,1,0-5.79-5.72A5.78,5.78,0,0,0,309,527.94Z"/><path id="_Tracciato_61" data-name="&lt;Tracciato&gt;" class="cls-4" d="M177.79,455.63a5.72,5.72,0,1,0,5.81,5.72A5.77,5.77,0,0,0,177.79,455.63Z"/><path id="_Tracciato_62" data-name="&lt;Tracciato&gt;" class="cls-4" d="M177.79,449.52A5.72,5.72,0,1,0,172,443.8,5.76,5.76,0,0,0,177.79,449.52Z"/><path id="_Tracciato_63" data-name="&lt;Tracciato&gt;" class="cls-4" d="M376.23,488.83a3.85,3.85,0,1,0-3.85,3.8A3.82,3.82,0,0,0,376.23,488.83Z"/><path id="_Tracciato_composto_16" data-name="&lt;Tracciato composto&gt;" class="cls-4" d="M325.6,297.71a12.78,12.78,0,1,0-13-12.78A12.87,12.87,0,0,0,325.6,297.71Zm0-23.2A10.42,10.42,0,1,1,315,284.93,10.5,10.5,0,0,1,325.6,274.51Z"/><path id="_Tracciato_composto_17" data-name="&lt;Tracciato composto&gt;" class="cls-4" d="M415.83,550.35a13,13,0,1,0,12.95-12.77A12.88,12.88,0,0,0,415.83,550.35Zm13-10.42a10.42,10.42,0,1,1-10.57,10.42A10.5,10.5,0,0,1,428.79,539.93Z"/><path id="_Tracciato_composto_18" data-name="&lt;Tracciato composto&gt;" class="cls-4" d="M128.68,308a12.78,12.78,0,1,0-13-12.78A12.89,12.89,0,0,0,128.68,308Zm0-23.2a10.42,10.42,0,1,1-10.56,10.42A10.5,10.5,0,0,1,128.68,284.8Z"/><path id="_Tracciato_64" data-name="&lt;Tracciato&gt;" class="cls-4" d="M128.69,299a3.8,3.8,0,1,0-3.85-3.8A3.82,3.82,0,0,0,128.69,299Z"/><path id="_Tracciato_65" data-name="&lt;Tracciato&gt;" class="cls-4" d="M116.48,331.72a3.88,3.88,0,0,0,1.73-.42l34.62,34.15H262.27V363.1h-45l-19.85-19.58H161.68v2.35h34.7l17.46,17.23h-60L119.9,329.63a3.85,3.85,0,1,0-3.42,2.09Z"/><path id="_Tracciato_66" data-name="&lt;Tracciato&gt;" class="cls-4" d="M442.55,616.86a3.91,3.91,0,0,0-1.61.35l-46.22-45.6L393,573.28l46.17,45.54a3.66,3.66,0,0,0-.5,1.83,3.85,3.85,0,1,0,3.85-3.79Z"/><path id="_Tracciato_composto_19" data-name="&lt;Tracciato composto&gt;" class="cls-4" d="M394.93,676.84V634.93L364.4,604.81V541.14l-30.78-30.36-1.69,1.66L362,542.12V698.3l-19.74,11.24v23.85L362,744.64v106h2.39v-106l6.28-3.58v60.46a3.78,3.78,0,0,0-2.66,3.59,3.85,3.85,0,0,0,7.7,0,3.77,3.77,0,0,0-2.65-3.59V739.7l11.07-6.31V709.54L364.4,698.3V608.14l28.15,27.76v41a3.85,3.85,0,1,0,2.38-.09ZM381.76,732l-10.56,6h-.52v.29l-7.47,4.26L344.66,732V710.9l18.55-10.57,18.55,10.57Z"/><polygon id="_Tracciato_67" data-name="&lt;Tracciato&gt;" class="cls-4" points="-1.53 364.02 4.29 367.5 10.09 370.98 10.24 364.27 10.39 357.57 4.43 360.8 -1.53 364.02"/><polygon id="_Tracciato_68" data-name="&lt;Tracciato&gt;" class="cls-4" points="189.37 492.38 195.19 495.86 201 499.34 201.15 492.63 201.3 485.93 195.34 489.15 189.37 492.38"/><polygon id="_Tracciato_69" data-name="&lt;Tracciato&gt;" class="cls-4" points="414.36 478.33 414.21 485.04 414.06 491.74 420.02 488.51 425.98 485.29 420.17 481.81 414.36 478.33"/><polygon id="_Tracciato_70" data-name="&lt;Tracciato&gt;" class="cls-4" points="302.14 310.03 302.14 300.16 293.48 295.22 284.81 300.16 284.81 310.03 293.47 314.96 302.14 310.03"/><polygon id="_Tracciato_71" data-name="&lt;Tracciato&gt;" class="cls-4" points="225.86 519.11 225.86 525.32 231.31 528.43 236.76 525.32 236.76 519.11 231.31 516 225.86 519.11"/><polygon id="_Tracciato_72" data-name="&lt;Tracciato&gt;" class="cls-4" points="42.71 393.45 42.71 401.95 50.17 406.2 57.63 401.95 57.63 393.45 50.17 389.2 42.71 393.45"/><path id="_Tracciato_composto_20" data-name="&lt;Tracciato composto&gt;" class="cls-4" d="M310.31,481.41l15.29,8.71,15.28-8.71V464l-15.28-8.7L310.31,464Zm.95-16.87,14.34-8.16,14.33,8.16v16.32L325.6,489l-14.34-8.17Z"/><path id="_Tracciato_73" data-name="&lt;Tracciato&gt;" class="cls-4" d="M286.35,511.61V619.28a3.86,3.86,0,1,0,2.39,0V511.61Z"/><path id="_Tracciato_74" data-name="&lt;Tracciato&gt;" class="cls-4" d="M337.62,503.91l91.76,90.52a3.74,3.74,0,0,0-.6,2,3.85,3.85,0,1,0,3.85-3.79,3.93,3.93,0,0,0-1.41.27l-69.34-68.41h24l17.61,17.37,1.68-1.67-18.3-18.05H359.49l-20.18-19.91Z"/><polygon id="_Tracciato_75" data-name="&lt;Tracciato&gt;" class="cls-4" points="243.08 339.9 243.23 333.2 237.27 336.43 231.31 339.66 237.12 343.14 242.93 346.61 243.08 339.9"/><polygon id="_Tracciato_76" data-name="&lt;Tracciato&gt;" class="cls-4" points="259.34 339.9 259.49 333.2 253.53 336.43 247.57 339.66 253.38 343.13 259.19 346.61 259.34 339.9"/><polygon id="_Tracciato_77" data-name="&lt;Tracciato&gt;" class="cls-4" points="376.75 284.93 373.5 279.01 370.25 273.08 366.75 278.86 363.25 284.64 370 284.78 376.75 284.93"/><polygon id="_Tracciato_78" data-name="&lt;Tracciato&gt;" class="cls-4" points="376.75 301.09 373.5 295.16 370.26 289.24 366.75 295.02 363.25 300.79 370 300.94 376.75 301.09"/><polygon id="_Tracciato_79" data-name="&lt;Tracciato&gt;" class="cls-4" points="21.16 337.31 23.01 335.82 2.83 311.31 -70.66 311.31 -70.66 313.66 1.69 313.66 21.16 337.31"/><polygon id="_Tracciato_80" data-name="&lt;Tracciato&gt;" class="cls-4" points="300.38 574.09 300.38 583.96 309.05 588.89 317.71 583.96 317.71 574.09 309.05 569.15 300.38 574.09"/><polygon id="_Tracciato_81" data-name="&lt;Tracciato&gt;" class="cls-4" points="33.44 325.16 42.1 320.22 42.1 310.35 33.44 305.42 24.77 310.35 24.78 320.22 33.44 325.16"/><path id="_Tracciato_composto_21" data-name="&lt;Tracciato composto&gt;" class="cls-4" d="M117.67,414V368.74L77.91,391.38Zm-2.38-22.64V410l-32.6-18.57,32.6-18.56Z"/></g><path id="_Tracciato_82" data-name="&lt;Tracciato&gt;" class="cls-4" d="M57,344.9a9.32,9.32,0,1,1,9.32,9.19A9.24,9.24,0,0,1,57,344.9Z"/><path id="_Tracciato_83" data-name="&lt;Tracciato&gt;" class="cls-4" d="M309.33,375.35a16.26,16.26,0,1,1,16.27,16A16.16,16.16,0,0,1,309.33,375.35Z"/><polygon id="_Tracciato_84" data-name="&lt;Tracciato&gt;" class="cls-4" points="318.92 468.91 325.6 465.11 332.26 468.91 332.26 476.5 325.6 480.3 318.92 476.5 318.92 468.91"/><polygon id="_Tracciato_85" data-name="&lt;Tracciato&gt;" class="cls-4" points="96.89 391.38 103.03 387.89 109.17 384.39 109.17 391.38 109.17 398.38 103.03 394.88 96.89 391.38"/></g></g></g></g><path id="_Tracciato_86" data-name="&lt;Tracciato&gt;" class="cls-2" d="M245.48,264.75v0l-.09.12.18-.1Z"/><g id="_Gruppo_11" data-name="&lt;Gruppo&gt;"><path id="_Tracciato_composto_22" data-name="&lt;Tracciato composto&gt;" class="cls-3" d="M275.15,200.06a245.39,245.39,0,0,1,14.66-43.44c-13-2.26-23.64-5.57-32.5-10.1-.45-.23-.88-.47-1.32-.71-3.4,2.59-5.76,7.84-7,11.24,2.46-.07,4.93-.14,7.4-.25l3.74-.15-1.37,3.48c-1.61,4.08-3.16,8.24-4.66,12.27s-3.07,8.25-4.69,12.38l-.91,2.29-2.28-.93A97.57,97.57,0,0,1,231.14,178l.48,2.21-1.32.81,1.48.1.72,4.36-.87.74,1,0,1,6.35-3.4-8.09,1.22-.74h-1.5l1.89-1.31H229.5l-1.08-3.34c-11.2,22.27-12.59,49.33-3.88,72.18a82.64,82.64,0,0,1,20.68-42.86l1.08-1.17,1.5.51c1.94.66,3.61,1.36,5.22,2,1.29.54,2.52,1.05,3.87,1.54,3.07-1.83,6.09-3.73,9-5.57S272,201.94,275.15,200.06Zm-2.92-44.45a8.37,8.37,0,0,0,2.48.85L260.35,196.3l-4,3.09Zm-15.52,52.71-11.6-3.25a82.74,82.74,0,0,0-21.35,40.1s-.11-37.09,11.83-47.79l18.56,5.84,7.9-5.84L276.32,157s7,2.19,9.75,2c0,0-11,27.19-12.88,39.39Z"/><path id="_Tracciato_87" data-name="&lt;Tracciato&gt;" class="cls-3" d="M310.31,229.92l20,11.07a30.31,30.31,0,0,0-22.74-15.14c-11.34-1.33-23.81,3.36-33.36,12.56-5.5,5.29-9,11.29-10.17,17.1l10.85-6a25.25,25.25,0,0,1,4-7.12c3.85-4.81,8.25-8.61,14.35-9.93a.14.14,0,0,1,.11.25c-4.56,2.74-9.18,6.41-11.72,11.18-.44.83-.84,1.69-1.22,2.57l15-8.29a30.55,30.55,0,0,1,3.36-4.45c.09-.1.22,0,.2.12-.16.92-.37,1.81-.6,2.7Z"/><path id="_Tracciato_88" data-name="&lt;Tracciato&gt;" class="cls-3" d="M325.47,199.75l-.72-1.21c-3-.18-6-1.27-9-1.33a39.1,39.1,0,0,0-11.5,1.31c-.07,0-.12-.09-.05-.12a32.23,32.23,0,0,1,18.29-2.78,18,18,0,0,0-3.88-3,49,49,0,0,0-5-.29,53.74,53.74,0,0,0-10,1.17,48.47,48.47,0,0,0-10,3.37c.63.92,1.15,1.91,1.69,2.89.46.82.94,1.64,1.4,2.48A53.79,53.79,0,0,1,325.47,199.75Z"/><path id="_Tracciato_89" data-name="&lt;Tracciato&gt;" class="cls-3" d="M288.16,199.51l.42.75c.73,1.38,1.65,2.9,2.36,4.46l1.57-.76c-.47-.67-.87-1.42-1.21-2a13,13,0,0,1-1.61-3.25Z"/><path id="_Tracciato_90" data-name="&lt;Tracciato&gt;" class="cls-3" d="M261,114.09c-1.08.12-2.16.28-3.23.46.44,1.77.88,3.55,1.33,5.32a2.68,2.68,0,0,1,.1.89c15.38-2.46,31.93,1.65,43.37,11.44a52.77,52.77,0,0,1,15,21.79,9.6,9.6,0,0,0,3.57-1.85c-.07-.13-.12-.26-.19-.39-.2-.4-.41-.79-.63-1.18a4.58,4.58,0,0,1-.67.57,9.64,9.64,0,0,1-2.46,1.08,12.1,12.1,0,0,0,2.35-3c-1.46-2.45-3.13-4.8-4.79-7.11a110.91,110.91,0,0,0-8.1-10.58c-3.17-3.46-7-5.84-11-8.23,0,0,0-.06,0,0,8.89,3.57,14.82,9.11,20.46,16.75.79,1.07,1.57,2.15,2.34,3.23a57.36,57.36,0,0,0-14.77-17.47,60,60,0,0,0-36.11-12c-1.78,0-3.54.09-5.28.24a.64.64,0,0,0,0,.07,16.86,16.86,0,0,1,.69,5.72A35.22,35.22,0,0,1,261,114.09Z"/><path id="_Tracciato_91" data-name="&lt;Tracciato&gt;" class="cls-3" d="M294.18,203.22c.48-.21,1-.42,1.44-.61-.47-.88-.91-1.79-1.36-2.65s-1-1.84-1.37-2.78c-.74.34-1.47.69-2.2,1,.72.92,1.24,2,1.92,3C293.05,201.85,293.68,202.52,294.18,203.22Z"/><path id="_Tracciato_92" data-name="&lt;Tracciato&gt;" class="cls-3" d="M373.19,253.17c-3.77-5.66-6.69-11.1-11.9-15.66a60.15,60.15,0,0,0-16.41-10.38,65.28,65.28,0,0,0-17.68-4.44,51.54,51.54,0,0,1,15.52,8.46A48.24,48.24,0,0,1,353.82,244a58,58,0,0,1,5.85,12c1.51.85,3,1.66,4.54,2.42-.24-.9-.48-1.79-.75-2.68a78,78,0,0,0-6.77-16.23s0-.09.07-.05a55.44,55.44,0,0,1,9.51,14.89c.7,1.69,1.62,3.85,2.36,6.14a38.4,38.4,0,0,0,12.16,3.35,95.8,95.8,0,0,0-6.22-19.19s.05-.12.09-.06a55,55,0,0,1,9.58,18.08l.29.94a9.14,9.14,0,0,0,3.48-1.44c-4-10.58-10.18-21.46-19.65-30-10.37-9.33-24-14.2-36.59-13.78a65,65,0,0,1,15.3,5.58,54.08,54.08,0,0,1,16.52,12.78c4,4.7,8.38,10.32,9.7,16.43A.05.05,0,0,1,373.19,253.17Z"/><path id="_Tracciato_93" data-name="&lt;Tracciato&gt;" class="cls-3" d="M335.18,235.21a33.27,33.27,0,0,1,13.55,13.16c.23.4.47.84.72,1.3,2.54,1.68,5.22,3.38,7.95,5a42.17,42.17,0,0,0-5.35-9.31,53.3,53.3,0,0,0-11.42-10.61,51.93,51.93,0,0,0-15.43-7.3c-.27-.08-.55-.15-.83-.21a33,33,0,0,1,10.5,11.91c2.07,1.61,4.92,3.78,8.25,6.17a52,52,0,0,0-8-10A.06.06,0,0,1,335.18,235.21Z"/><path id="_Tracciato_94" data-name="&lt;Tracciato&gt;" class="cls-3" d="M321.05,155.66a6.93,6.93,0,0,1-2.51,1.3c.22.7.42,1.41.6,2.12a5.83,5.83,0,0,0,3.25-1.13,5.89,5.89,0,0,0,.74-.67c-.27-.86-.56-1.71-.88-2.55C321.86,155.06,321.45,155.37,321.05,155.66Z"/><path id="_Tracciato_95" data-name="&lt;Tracciato&gt;" class="cls-4" d="M258.36,109.52c-.44-2.37-.92-4.73-1.47-7.07a192.34,192.34,0,0,0-7-23.5,182,182,0,0,0-10.57-23.5c-4-7.38-8.93-14.1-13.13-21.34a.08.08,0,0,1,.13-.1c6.25,5.65,11.41,13.33,15.9,20.42a157.06,157.06,0,0,1,12,22.7,153.92,153.92,0,0,1,8.06,24.46q.85,3.68,1.54,7.38c1.26-.08,2.52-.12,3.8-.12s2.7.05,4.05.13a203.81,203.81,0,0,0-2.08-22.19C267.21,71.14,262.33,56.55,256,42.1a.15.15,0,0,1,.26-.15c8.17,13.5,13.79,29,17.26,44.38a133.74,133.74,0,0,1,3.08,23.15c1.62.22,3.24.5,4.83.84.17-1.36.33-2.72.45-4.08a96.82,96.82,0,0,0-.46-20c0-.12.18-.14.21,0a113,113,0,0,1,3.17,20c.12,1.65.19,3.3.2,5a64.5,64.5,0,0,1,6.3,2.08c.23-1.43.45-2.85.65-4.28a106.87,106.87,0,0,0-.27-29.62c0-.26.32-.37.39-.11a105,105,0,0,1,4,29c0,2.31-.12,4.61-.34,6.89a59.52,59.52,0,0,1,6.81,3.8A96.64,96.64,0,0,0,305,102.05a93.76,93.76,0,0,0-6-39s.05-.07.07,0a84.18,84.18,0,0,1,10.08,39.06,82.88,82.88,0,0,1-2.28,20.08q2.15,1.68,4.14,3.59c2.57-4.72,3.6-9.79,5.31-14.83.09-.24.51-.3.56,0,.85,5.57-.8,11.33-2.77,16.53l-.41,1c1,1.12,2,2.27,3,3.47l.25-.15a29.78,29.78,0,0,0,8.14-7.06.14.14,0,0,1,.24.14,30.73,30.73,0,0,1-6.71,9.62q1.35,1.89,2.56,3.88l.75-.54a38.82,38.82,0,0,0,6.71-6.35c4.33-5.27,6.63-11.18,8.24-17.74,0-.1.2-.11.21,0,1,6.76-1.2,14.15-4.88,19.85a34.58,34.58,0,0,1-8.48,9.32,71.22,71.22,0,0,1,3.7,8.62c2.2.42,4.54,1.66,6.43,2.24,3.66,1.12,7.39,1.5,11.09,2.38a.24.24,0,0,1,0,.45c-3.8,1.34-8.22,1.26-12.18.73a34.66,34.66,0,0,1-3.76-.63c.22.85.42,1.7.61,2.55,2.17,3.06,4,6.38,6.09,9.48a126.71,126.71,0,0,0,18.81,21.49c1.88,1.67,3.82,3.29,5.8,4.83.35.27.72.54,1.08.8-1-3.27-1.8-6.52-2.47-9.72-1.11-1-2.18-2-3.24-3-4.6-4.37-8.9-8.64-12.29-14-.09-.14.12-.29.24-.18,4.45,4.33,8.95,9,14.18,12.39l.22.14c-.62-3.6-1.1-7.07-1.48-10.32-.57-4.84-1-9.77-1.44-14.54-.5-5.61-1-11.32-1.76-17-4.32,3-10.12,4.47-14.42,3.47-.09,0-.08-.13,0-.16,3.8-1.29,7.4-2.52,10.74-4.84a21.1,21.1,0,0,0,3.08-2.72c-.56-3.64-1.22-7.26-2.06-10.82a110.6,110.6,0,0,0-3.12-10.64,52,52,0,0,1-3.76,11.34c-.05.11-.2,0-.18-.07a63,63,0,0,0,1.21-18.35,120.13,120.13,0,0,0-16.52-27.72c.07,1.2.13,2.4.15,3.59A80.26,80.26,0,0,1,323,112a.15.15,0,0,1-.28-.08,95.45,95.45,0,0,0,2.06-28.6c-.23-3.32-.6-6.62-1.16-9.9a128.16,128.16,0,0,0-14-13.5,118.92,118.92,0,0,1,3.88,21.83c0,.06-.09.07-.1,0a107.71,107.71,0,0,0-6.58-24.09,129.62,129.62,0,0,0-11.92-8.28c-2.27-1.4-4.6-2.74-7-4,3.21,6.75,5.19,13.85,7.41,21,0,.13-.16.18-.21,0-3-7.65-7.62-14.77-12-21.71-.54-.86-1.09-1.7-1.64-2.55A142.93,142.93,0,0,0,266.19,36c.79,1.55,1.55,3.12,2.26,4.7,4.51,10.12,7.5,21.18,9.68,32a.08.08,0,0,1-.16,0,150.53,150.53,0,0,0-13.42-30.47q-2.34-4.2-4.83-8.32a155.47,155.47,0,0,0-21.61-4.56,56.66,56.66,0,0,1,8.4,15.7c0,.13-.14.25-.22.14a121.39,121.39,0,0,0-12.19-14c-.93-.86-1.84-1.74-2.76-2.61q-7.8-.75-15.79-.75c-2.63,0-5.29.07-7.94.19,22.51,23.13,37.56,52.38,42.75,83.17A59.6,59.6,0,0,1,258.36,109.52Z"/><path id="_Tracciato_96" data-name="&lt;Tracciato&gt;" class="cls-3" d="M254.33,144.84c-.62-.38-1.23-.77-1.83-1.18-3.43,3.52-5.91,8.67-7.63,13.49l2.56-.06C249.3,150.13,252.67,146.36,254.33,144.84Z"/><path id="_Tracciato_97" data-name="&lt;Tracciato&gt;" class="cls-3" d="M285.13,194.63c.13.19.27.38.39.57.35-.82.7-1.63,1-2.45,2.39-5.66,4.78-11.15,6.77-17a.16.16,0,0,1,.31.09c-1.36,5.95-2.54,12-4.11,17.91-.23.86-.45,1.83-.68,2.85,4.87-3.49,11.25-5.71,16.62-6.9l1.29-.29c2.07-6.21,4.68-12.61,3.25-19.21,0-.12.15-.2.2-.08,2.82,6.07,1.31,12.51-.27,18.7.47-.07.94-.14,1.41-.19a47.49,47.49,0,0,0,2.82-11.51,25,25,0,0,0-.28-6,.83.83,0,0,1,0-.15,28.76,28.76,0,0,0-5-8.87,93.27,93.27,0,0,0-11.41-7.21l-.05,0c-2.08,8-4.85,15.88-7.33,23.76-1.32,4.16-2.61,8.32-3.94,12.48C285.79,192.16,285.5,193.4,285.13,194.63Z"/><path id="_Tracciato_98" data-name="&lt;Tracciato&gt;" class="cls-3" d="M254.19,138.41a102,102,0,0,1,43.59,11.15h.46c1.77,0,3.71-.63,4.61-2.17a4,4,0,0,0,.44-1.24c-1.18-1.66-2.41-3.3-3.71-4.86a39.4,39.4,0,0,0-13.71-10.72c-.07,0,0-.14.06-.12,5.86,1.15,10.87,4.37,15.13,8.49.16.15.31.31.46.47a23.51,23.51,0,0,0-2.34-3.67c-11.22-9.48-27.78-13-42.6-9.52a13.24,13.24,0,0,0-1.41,3.19c-.51,2.7.17,5.23.41,7.89a0,0,0,0,1-.08,0,15.18,15.18,0,0,1-2.14-8.92,12.57,12.57,0,0,1,.27-1.39c-.58.18-1.17.37-1.75.57a7.74,7.74,0,0,0-.76,6.39A10,10,0,0,0,254.19,138.41Z"/><path id="_Tracciato_99" data-name="&lt;Tracciato&gt;" class="cls-3" d="M253.93,115.35q.82,3,1.67,6.11c.88-.2,1.76-.38,2.65-.54l-1.95-6.1C255.5,115,254.71,115.15,253.93,115.35Z"/><path id="_Tracciato_100" data-name="&lt;Tracciato&gt;" class="cls-3" d="M249.2,116.74l-1.73.6a52.35,52.35,0,0,0,1.74,6q2.32-.85,4.72-1.49l-1.62-6.09C251.26,116.07,250.22,116.38,249.2,116.74Z"/><path id="_Tracciato_101" data-name="&lt;Tracciato&gt;" class="cls-3" d="M222.89,155.47l2.08-2.09-2.49.87-1.22-10.56,5.63,10-1.45,2,1.8-.46,1,2.36,4.71-.16a108.55,108.55,0,0,1,11.46-20.83,40.85,40.85,0,0,1-4.64-6.4c-7.4,6-12.74,16.35-12.74,16.35a56.32,56.32,0,0,1,11.23-19.16,37,37,0,0,1-2.28-6.07,86.14,86.14,0,0,0-26.38,84.3,107.11,107.11,0,0,1,14.5-45.72Z"/><path id="_Tracciato_102" data-name="&lt;Tracciato&gt;" class="cls-1" d="M286.07,159.07c-2.74.16-9.75-2-9.75-2l-14.27,40.34-7.9,5.84-18.56-5.84c-11.94,10.7-11.83,47.79-11.83,47.79a82.74,82.74,0,0,1,21.35-40.1l11.6,3.25,16.48-9.86C275.05,186.26,286.07,159.07,286.07,159.07Z"/><path id="_Tracciato_103" data-name="&lt;Tracciato&gt;" class="cls-1" d="M274.71,156.46a8.37,8.37,0,0,1-2.48-.85l-15.88,43.78,4-3.09Z"/></g><g id="_Gruppo_12" data-name="&lt;Gruppo&gt;"><path id="_Tracciato_104" data-name="&lt;Tracciato&gt;" class="cls-5" d="M157.93,268.08h.16c0-.07,0-.14,0-.21Z"/><path id="_Tracciato_105" data-name="&lt;Tracciato&gt;" class="cls-3" d="M298.88,460c-55.43-12.89-91.06-30.71-113.9-49,24.08,57.74,63.33,106.36,113.71,155.7,33.24-32.44,61.64-64.6,84.08-99.25C362.41,470.13,335.18,468.45,298.88,460Z"/><path id="_Tracciato_composto_23" data-name="&lt;Tracciato composto&gt;" class="cls-4" d="M445.89,353.26s-1.09,11.82-9.76,25q-1.31,2-2.86,4a69.13,69.13,0,0,1-14.87,14.29c13.92-38.1,21.43-80.31,21.43-129.22l-.2-.07a467.94,467.94,0,0,1-139.21-21.05l-.31-.14a468,468,0,0,1-142,22,401.94,401.94,0,0,0,7.77,80.64c-18.49-18.61-18.15-33-18.15-33s-2.44,10.48,1.64,25.73c7.7,28.76,38.63,74.51,153.11,98.91,87.22,18.59,123.22-2.55,137.36-28.64C454.24,385.05,445.89,353.26,445.89,353.26Z"/></g><g id="_Gruppo_clip_3" data-name="&lt;Gruppo clip&gt;"><g class="cls-6"><g id="_Gruppo_13" data-name="&lt;Gruppo&gt;"><g id="_Gruppo_14" data-name="&lt;Gruppo&gt;"><path id="_Tracciato_106" data-name="&lt;Tracciato&gt;" class="cls-3" d="M429.94,550.35a3.85,3.85,0,1,1,3.84,3.79A3.83,3.83,0,0,1,429.94,550.35Z"/><g id="_Gruppo_15" data-name="&lt;Gruppo&gt;"><polygon id="_Tracciato_107" data-name="&lt;Tracciato&gt;" class="cls-3" points="422.99 376.48 414.6 381.33 406.22 386.17 406.22 376.48 406.22 366.79 414.6 371.63 422.99 376.48"/></g><path id="_Tracciato_108" data-name="&lt;Tracciato&gt;" class="cls-3" d="M326.74,284.93a3.85,3.85,0,1,1,3.86,3.79A3.83,3.83,0,0,1,326.74,284.93Z"/><g id="_Gruppo_16" data-name="&lt;Gruppo&gt;"><path id="_Tracciato_composto_24" data-name="&lt;Tracciato composto&gt;" class="cls-3" d="M71.26,361.24A16.35,16.35,0,1,0,54.7,344.9,16.47,16.47,0,0,0,71.26,361.24Zm0-31.75A15.41,15.41,0,1,1,55.65,344.9,15.52,15.52,0,0,1,71.27,329.49Z"/><path id="_Tracciato_composto_25" data-name="&lt;Tracciato composto&gt;" class="cls-3" d="M390.34,488.83a13,13,0,1,0-13,12.78A12.89,12.89,0,0,0,390.34,488.83Zm-23.52,0a10.57,10.57,0,1,1,10.56,10.43A10.51,10.51,0,0,1,366.82,488.83Z"/><path id="_Tracciato_109" data-name="&lt;Tracciato&gt;" class="cls-3" d="M28,358.55a5.72,5.72,0,1,0,5.8,5.73A5.76,5.76,0,0,0,28,358.55Z"/><path id="_Tracciato_composto_26" data-name="&lt;Tracciato composto&gt;" class="cls-3" d="M-91.15,329.85a5.76,5.76,0,0,0,5.8-5.73,5.43,5.43,0,0,0-.14-1.22H1.6l17.69,20.82H-13.65a3.83,3.83,0,0,0-3.63-2.61,3.81,3.81,0,0,0-3.83,3.79,3.81,3.81,0,0,0,3.83,3.78,3.82,3.82,0,0,0,3.63-2.61H46.9a24.42,24.42,0,0,0,48.74,0h26.1l30.87,30.45h54.25a5.82,5.82,0,0,0,11.35,0h25l-21.85,21.56H154.13a3.8,3.8,0,1,0,0,2.36h68.24l24.24-23.92H267a61.84,61.84,0,0,0,10.83,33.82l0,0-23.14,22.82,1.67,1.65-30.12-17.16L195.69,435v34.73l30.48,17.36,30.49-17.36V435l-.34-.2,22.84-22.53A63.84,63.84,0,0,0,329.4,438.1v11.44l-19.74,11.24v8.72L292.2,486.73V457.65l7.21-7.11-1.68-1.67-7.92,7.81v32.4l-16.88,16.66V547.8l-14.26,14.07a3.72,3.72,0,0,0-1.73-.43,3.8,3.8,0,1,0,3.85,3.8,3.77,3.77,0,0,0-.43-1.71l14.95-14.76v-42l34.35-33.88v10.62l-27.78,27.4V579h2.39V511.84l26.78-26.42,18.35,10.46v24.31L357,547.42v26a5.71,5.71,0,0,0,0,11.2v28.64a3.85,3.85,0,1,0,2.38,0V584.62a5.7,5.7,0,0,0,0-11.19v-27l-27.6-27.23V495.88l19.74-11.25V460.78l-13.07-7.45V429.27a55.4,55.4,0,0,0,29.7-14l10.21,10.06h42.91a3.79,3.79,0,1,0,.21-2.35H379.35l-9.47-9.35a53.87,53.87,0,0,0,0-76.51l4.26-4.2a59.83,59.83,0,0,1,17.71,42.46h2.39a62.15,62.15,0,0,0-18.42-44.13l52.85-52.13a3.88,3.88,0,0,0,1.73.42,3.8,3.8,0,1,0-3.85-3.8,3.77,3.77,0,0,0,.43,1.71l-52.87,52.16a63.9,63.9,0,0,0-43.51-17v2.35a61.49,61.49,0,0,1,41.82,16.34l-4.26,4.2a55.65,55.65,0,0,0-75.74.57l-19.57-19.31H239.22l-41.64-41.08a3.89,3.89,0,0,0,.22-1.24,3.85,3.85,0,1,0-1.68,3.13l39.72,39.19h-9.69l-41.58-41a3.85,3.85,0,1,0-3.6,2.49,3.94,3.94,0,0,0,2.12-.63l39.68,39.15h-48.6a3.8,3.8,0,1,0,0,2.35h51l.18.18.18-.18h12.72l.17.18.18-.18h33.28l18.88,18.63a53.89,53.89,0,0,0-15.37,37.65c0,29.65,24.13,53.83,54,54.46v5.95c-33.23-.64-60.07-27.48-60.06-60.4v-1.18H218.21a5.81,5.81,0,0,0-11.35,0H153.59l-30.86-30.45H95.64a24.42,24.42,0,0,0-48.74,0H22.41L2.71,320.54H-86.63a5.8,5.8,0,0,0-4.52-2.15,5.76,5.76,0,0,0-5.8,5.72A5.76,5.76,0,0,0-91.15,329.85ZM254.27,468.36l-28.1,16-28.09-16v-32l28.09-16,28.1,16Zm94.87,14.91L330.6,493.84,312,483.28V462.14l18.56-10.57,18.54,10.57ZM336.07,452l-4.28-2.45V429.8c1.44,0,2.87-.1,4.28-.24Zm-4.28-77.12-32.12-31.69A45.14,45.14,0,0,1,330.6,331c24.8,0,45,19.91,45,44.38,0,24.07-19.54,43.71-43.78,44.34Zm-2.39,1v43.86c-24.25-.63-43.78-20.28-43.78-44.34A43.89,43.89,0,0,1,298,344.84Zm1.2-52.62c29.13,0,52.84,23.39,52.84,52.14,0,28.35-23.07,51.47-51.65,52.1v-6.82c24.77-.63,44.74-20.69,44.74-45.28,0-25-20.61-45.32-45.93-45.32A46.09,46.09,0,0,0,299,342.51l-4.88-4.82A53,53,0,0,1,330.6,323.21Zm-52.85,52.14a51.61,51.61,0,0,1,14.67-36l4.89,4.82a44.83,44.83,0,0,0-12.65,31.18c0,24.59,20,44.65,44.74,45.28v6.82C300.81,426.82,277.75,403.69,277.75,375.35ZM71.27,323.18a21.72,21.72,0,1,1-22,21.72A21.89,21.89,0,0,1,71.27,323.18Z"/><path id="_Tracciato_110" data-name="&lt;Tracciato&gt;" class="cls-3" d="M314,545.49a5.72,5.72,0,1,0-5.79-5.72A5.76,5.76,0,0,0,314,545.49Z"/><path id="_Tracciato_111" data-name="&lt;Tracciato&gt;" class="cls-3" d="M314,527.94a5.73,5.73,0,1,0-5.79-5.72A5.78,5.78,0,0,0,314,527.94Z"/><path id="_Tracciato_112" data-name="&lt;Tracciato&gt;" class="cls-3" d="M182.79,455.63a5.72,5.72,0,1,0,5.81,5.72A5.77,5.77,0,0,0,182.79,455.63Z"/><path id="_Tracciato_113" data-name="&lt;Tracciato&gt;" class="cls-3" d="M182.79,449.52A5.72,5.72,0,1,0,177,443.8,5.76,5.76,0,0,0,182.79,449.52Z"/><path id="_Tracciato_114" data-name="&lt;Tracciato&gt;" class="cls-3" d="M381.23,488.83a3.85,3.85,0,1,0-3.85,3.8A3.82,3.82,0,0,0,381.23,488.83Z"/><path id="_Tracciato_composto_27" data-name="&lt;Tracciato composto&gt;" class="cls-3" d="M330.6,297.71a12.78,12.78,0,1,0-13-12.78A12.87,12.87,0,0,0,330.6,297.71Zm0-23.2A10.42,10.42,0,1,1,320,284.93,10.5,10.5,0,0,1,330.6,274.51Z"/><path id="_Tracciato_composto_28" data-name="&lt;Tracciato composto&gt;" class="cls-3" d="M420.83,550.35a13,13,0,1,0,12.95-12.77A12.88,12.88,0,0,0,420.83,550.35Zm13-10.42a10.42,10.42,0,1,1-10.57,10.42A10.5,10.5,0,0,1,433.79,539.93Z"/><path id="_Tracciato_composto_29" data-name="&lt;Tracciato composto&gt;" class="cls-3" d="M133.68,308a12.78,12.78,0,1,0-13-12.78A12.89,12.89,0,0,0,133.68,308Zm0-23.2a10.42,10.42,0,1,1-10.56,10.42A10.5,10.5,0,0,1,133.68,284.8Z"/><path id="_Tracciato_115" data-name="&lt;Tracciato&gt;" class="cls-3" d="M133.69,299a3.8,3.8,0,1,0-3.85-3.8A3.82,3.82,0,0,0,133.69,299Z"/><path id="_Tracciato_116" data-name="&lt;Tracciato&gt;" class="cls-3" d="M121.48,331.72a3.88,3.88,0,0,0,1.73-.42l34.62,34.15H267.27V363.1h-45l-19.85-19.58H166.68v2.35h34.7l17.46,17.23h-60L124.9,329.63a3.85,3.85,0,1,0-3.42,2.09Z"/><path id="_Tracciato_117" data-name="&lt;Tracciato&gt;" class="cls-3" d="M447.55,616.86a3.91,3.91,0,0,0-1.61.35l-46.22-45.6L398,573.28l46.17,45.54a3.66,3.66,0,0,0-.5,1.83,3.85,3.85,0,1,0,3.85-3.79Z"/><path id="_Tracciato_composto_30" data-name="&lt;Tracciato composto&gt;" class="cls-3" d="M399.93,676.84V634.93L369.4,604.81V541.14l-30.78-30.36-1.69,1.66L367,542.12V698.3l-19.74,11.24v23.85L367,744.64v106h2.39v-106l6.28-3.58v60.46a3.78,3.78,0,0,0-2.66,3.59,3.85,3.85,0,0,0,7.7,0,3.77,3.77,0,0,0-2.65-3.59V739.7l11.07-6.31V709.54L369.4,698.3V608.14l28.15,27.76v41a3.85,3.85,0,1,0,2.38-.09ZM386.76,732l-10.56,6h-.52v.29l-7.47,4.26L349.66,732V710.9l18.55-10.57,18.55,10.57Z"/><polygon id="_Tracciato_118" data-name="&lt;Tracciato&gt;" class="cls-3" points="3.47 364.02 9.29 367.5 15.09 370.98 15.24 364.27 15.39 357.57 9.43 360.8 3.47 364.02"/><polygon id="_Tracciato_119" data-name="&lt;Tracciato&gt;" class="cls-3" points="194.37 492.38 200.19 495.86 206 499.34 206.15 492.63 206.3 485.93 200.34 489.15 194.37 492.38"/><polygon id="_Tracciato_120" data-name="&lt;Tracciato&gt;" class="cls-3" points="419.36 478.33 419.21 485.04 419.06 491.74 425.02 488.51 430.98 485.29 425.17 481.81 419.36 478.33"/><path id="_Tracciato_composto_31" data-name="&lt;Tracciato composto&gt;" class="cls-3" d="M202.64,438.68l-.24.13v27.08l23.77,13.55L249.71,466l.24-.14V438.81l-23.78-13.54ZM249,465.35l-22.82,13-22.82-13v-26l22.82-13,22.82,13Z"/><polygon id="_Tracciato_121" data-name="&lt;Tracciato&gt;" class="cls-3" points="307.14 310.03 307.14 300.16 298.48 295.22 289.81 300.16 289.81 310.03 298.47 314.96 307.14 310.03"/><polygon id="_Tracciato_122" data-name="&lt;Tracciato&gt;" class="cls-3" points="230.86 519.11 230.86 525.32 236.31 528.43 241.76 525.32 241.76 519.11 236.31 516 230.86 519.11"/><polygon id="_Tracciato_123" data-name="&lt;Tracciato&gt;" class="cls-3" points="47.71 393.45 47.71 401.95 55.17 406.2 62.63 401.95 62.63 393.45 55.17 389.2 47.71 393.45"/><path id="_Tracciato_composto_32" data-name="&lt;Tracciato composto&gt;" class="cls-3" d="M315.31,481.41l15.29,8.71,15.28-8.71V464l-15.28-8.7L315.31,464Zm.95-16.87,14.34-8.16,14.33,8.16v16.32L330.6,489l-14.34-8.17Z"/><path id="_Tracciato_124" data-name="&lt;Tracciato&gt;" class="cls-3" d="M291.35,511.61V619.28a3.86,3.86,0,1,0,2.39,0V511.61Z"/><path id="_Tracciato_125" data-name="&lt;Tracciato&gt;" class="cls-3" d="M342.62,503.91l91.76,90.52a3.74,3.74,0,0,0-.6,2,3.85,3.85,0,1,0,3.85-3.79,3.93,3.93,0,0,0-1.41.27l-69.34-68.41h24l17.61,17.37,1.68-1.67-18.3-18.05H364.49l-20.18-19.91Z"/><polygon id="_Tracciato_126" data-name="&lt;Tracciato&gt;" class="cls-3" points="248.08 339.9 248.23 333.2 242.27 336.43 236.31 339.66 242.12 343.14 247.93 346.61 248.08 339.9"/><polygon id="_Tracciato_127" data-name="&lt;Tracciato&gt;" class="cls-3" points="264.34 339.9 264.49 333.2 258.53 336.43 252.57 339.66 258.38 343.13 264.19 346.61 264.34 339.9"/><polygon id="_Tracciato_128" data-name="&lt;Tracciato&gt;" class="cls-3" points="381.75 284.93 378.5 279.01 375.25 273.08 371.75 278.86 368.25 284.64 375 284.78 381.75 284.93"/><polygon id="_Tracciato_129" data-name="&lt;Tracciato&gt;" class="cls-3" points="381.75 301.09 378.5 295.16 375.26 289.24 371.75 295.02 368.25 300.79 375 300.94 381.75 301.09"/><polygon id="_Tracciato_130" data-name="&lt;Tracciato&gt;" class="cls-3" points="26.16 337.31 28.01 335.82 7.83 311.31 -65.66 311.31 -65.66 313.66 6.69 313.66 26.16 337.31"/><polygon id="_Tracciato_131" data-name="&lt;Tracciato&gt;" class="cls-3" points="305.38 574.09 305.38 583.96 314.05 588.89 322.71 583.96 322.71 574.09 314.05 569.15 305.38 574.09"/><polygon id="_Tracciato_132" data-name="&lt;Tracciato&gt;" class="cls-3" points="38.44 325.16 47.1 320.22 47.1 310.35 38.44 305.42 29.77 310.35 29.78 320.22 38.44 325.16"/><path id="_Tracciato_composto_33" data-name="&lt;Tracciato composto&gt;" class="cls-3" d="M122.67,414V368.74L82.91,391.38Zm-2.38-22.64V410l-32.6-18.57,32.6-18.56Z"/></g><path id="_Tracciato_133" data-name="&lt;Tracciato&gt;" class="cls-3" d="M62,344.9a9.32,9.32,0,1,1,9.32,9.19A9.24,9.24,0,0,1,62,344.9Z"/><path id="_Tracciato_134" data-name="&lt;Tracciato&gt;" class="cls-3" d="M314.33,375.35a16.26,16.26,0,1,1,16.27,16A16.16,16.16,0,0,1,314.33,375.35Z"/><polygon id="_Tracciato_135" data-name="&lt;Tracciato&gt;" class="cls-3" points="212.56 444.6 226.17 436.84 239.79 444.6 239.79 460.11 226.17 467.87 212.56 460.11 212.56 444.6"/><polygon id="_Tracciato_136" data-name="&lt;Tracciato&gt;" class="cls-3" points="323.92 468.91 330.6 465.11 337.26 468.91 337.26 476.5 330.6 480.3 323.92 476.5 323.92 468.91"/><polygon id="_Tracciato_137" data-name="&lt;Tracciato&gt;" class="cls-3" points="101.89 391.38 108.03 387.89 114.17 384.39 114.17 391.38 114.17 398.38 108.03 394.88 101.89 391.38"/></g></g><path id="_Tracciato_138" data-name="&lt;Tracciato&gt;" class="cls-3" d="M157.93,268.08h.16c0-.07,0-.14,0-.21Z"/><path id="_Tracciato_139" data-name="&lt;Tracciato&gt;" class="cls-3" d="M298.88,460c-55.43-12.89-91.06-30.71-113.9-49,24.08,57.74,63.33,106.36,113.71,155.7,33.24-32.44,61.64-64.6,84.08-99.25C362.41,470.13,335.18,468.45,298.88,460Z"/></g></g><g id="_Gruppo_clip_4" data-name="&lt;Gruppo clip&gt;"><g class="cls-7"><g id="_Gruppo_17" data-name="&lt;Gruppo&gt;"><g id="_Gruppo_18" data-name="&lt;Gruppo&gt;"><path id="_Tracciato_140" data-name="&lt;Tracciato&gt;" class="cls-4" d="M424.94,550.35a3.85,3.85,0,1,1,3.84,3.79A3.83,3.83,0,0,1,424.94,550.35Z"/><g id="_Gruppo_19" data-name="&lt;Gruppo&gt;"><polygon id="_Tracciato_141" data-name="&lt;Tracciato&gt;" class="cls-4" points="417.99 376.48 409.6 381.33 401.22 386.17 401.22 376.48 401.22 366.79 409.6 371.63 417.99 376.48"/></g><path id="_Tracciato_142" data-name="&lt;Tracciato&gt;" class="cls-4" d="M321.74,284.93a3.85,3.85,0,1,1,3.86,3.79A3.83,3.83,0,0,1,321.74,284.93Z"/><g id="_Gruppo_20" data-name="&lt;Gruppo&gt;"><path id="_Tracciato_composto_34" data-name="&lt;Tracciato composto&gt;" class="cls-4" d="M66.26,361.24A16.35,16.35,0,1,0,49.7,344.9,16.47,16.47,0,0,0,66.26,361.24Zm0-31.75A15.41,15.41,0,1,1,50.65,344.9,15.52,15.52,0,0,1,66.27,329.49Z"/><path id="_Tracciato_composto_35" data-name="&lt;Tracciato composto&gt;" class="cls-4" d="M385.34,488.83a13,13,0,1,0-13,12.78A12.89,12.89,0,0,0,385.34,488.83Zm-23.52,0a10.57,10.57,0,1,1,10.56,10.43A10.51,10.51,0,0,1,361.82,488.83Z"/><path id="_Tracciato_143" data-name="&lt;Tracciato&gt;" class="cls-4" d="M23,358.55a5.72,5.72,0,1,0,5.8,5.73A5.76,5.76,0,0,0,23,358.55Z"/><path id="_Tracciato_composto_36" data-name="&lt;Tracciato composto&gt;" class="cls-4" d="M251.29,434.78m.37.21-.34-.2,22.84-22.53A63.84,63.84,0,0,0,324.4,438.1v11.44l-19.74,11.24v8.72L287.2,486.73V457.65l7.21-7.11-1.68-1.67-7.92,7.81v32.4l-16.88,16.66V547.8l-14.26,14.07a3.72,3.72,0,0,0-1.73-.43,3.8,3.8,0,1,0,3.85,3.8,3.77,3.77,0,0,0-.43-1.71l14.95-14.76v-42l34.35-33.88v10.62l-27.78,27.4V579h2.39V511.84l26.78-26.42,18.35,10.46v24.31L352,547.42v26a5.71,5.71,0,0,0,0,11.2v28.64a3.85,3.85,0,1,0,2.38,0V584.62a5.7,5.7,0,0,0,0-11.19v-27l-27.6-27.23V495.88l19.74-11.25V460.78l-13.07-7.45V429.27a55.4,55.4,0,0,0,29.7-14l10.21,10.06h42.91a3.79,3.79,0,1,0,.21-2.35H374.35l-9.47-9.35a53.87,53.87,0,0,0,0-76.51l4.26-4.2a59.83,59.83,0,0,1,17.71,42.46h2.39a62.15,62.15,0,0,0-18.42-44.13l52.85-52.13a3.88,3.88,0,0,0,1.73.42,3.8,3.8,0,1,0-3.85-3.8,3.77,3.77,0,0,0,.43,1.71l-52.87,52.16a63.9,63.9,0,0,0-43.51-17v2.35a61.49,61.49,0,0,1,41.82,16.34l-4.26,4.2a55.65,55.65,0,0,0-75.74.57l-19.57-19.31H234.22l-41.64-41.08a3.89,3.89,0,0,0,.22-1.24,3.85,3.85,0,1,0-1.68,3.13l39.72,39.19h-9.69l-41.58-41a3.85,3.85,0,1,0-3.6,2.49,3.94,3.94,0,0,0,2.12-.63l39.68,39.15h-48.6a3.8,3.8,0,1,0,0,2.35h51l.18.18.18-.18h12.72l.17.18.18-.18h33.28l18.88,18.63a53.89,53.89,0,0,0-15.37,37.65c0,29.65,24.13,53.83,54,54.46v5.95c-33.23-.64-60.07-27.48-60.06-60.4v-1.18H213.21a5.81,5.81,0,0,0-11.35,0H148.59l-30.86-30.45H90.64a24.42,24.42,0,0,0-48.74,0H17.41l-19.7-23.18H-91.63a5.8,5.8,0,0,0-4.52-2.15,5.76,5.76,0,0,0-5.8,5.72,5.76,5.76,0,0,0,5.8,5.73,5.76,5.76,0,0,0,5.8-5.73,5.43,5.43,0,0,0-.14-1.22H-3.4l17.69,20.82H-18.65a3.83,3.83,0,0,0-3.63-2.61,3.81,3.81,0,0,0-3.83,3.79,3.81,3.81,0,0,0,3.83,3.78,3.82,3.82,0,0,0,3.63-2.61H41.9a24.42,24.42,0,0,0,48.74,0h26.1l30.87,30.45h54.25a5.82,5.82,0,0,0,11.35,0h25l-21.85,21.56H149.13a3.8,3.8,0,1,0,0,2.36h68.24l24.24-23.92H262a61.84,61.84,0,0,0,10.83,33.82l0,0m71.38,73L325.6,493.84,307,483.28V462.14l18.56-10.57,18.54,10.57ZM331.07,452l-4.28-2.45V429.8c1.44,0,2.87-.1,4.28-.24Zm-4.28-77.12-32.12-31.69A45.14,45.14,0,0,1,325.6,331c24.8,0,45,19.91,45,44.38,0,24.07-19.54,43.71-43.78,44.34Zm-2.39,1v43.86c-24.25-.63-43.78-20.28-43.78-44.34A43.89,43.89,0,0,1,293,344.84Zm1.2-52.62c29.13,0,52.84,23.39,52.84,52.14,0,28.35-23.07,51.47-51.65,52.1v-6.82c24.77-.63,44.74-20.69,44.74-45.28,0-25-20.61-45.32-45.93-45.32A46.09,46.09,0,0,0,294,342.51l-4.88-4.82A53,53,0,0,1,325.6,323.21Zm-52.85,52.14a51.61,51.61,0,0,1,14.67-36l4.89,4.82a44.83,44.83,0,0,0-12.65,31.18c0,24.59,20,44.65,44.74,45.28v6.82C295.81,426.82,272.75,403.69,272.75,375.35ZM66.27,323.18a21.72,21.72,0,1,1-22,21.72A21.89,21.89,0,0,1,66.27,323.18Z"/><path id="_Tracciato_144" data-name="&lt;Tracciato&gt;" class="cls-4" d="M309,545.49a5.72,5.72,0,1,0-5.79-5.72A5.76,5.76,0,0,0,309,545.49Z"/><path id="_Tracciato_145" data-name="&lt;Tracciato&gt;" class="cls-4" d="M309,527.94a5.73,5.73,0,1,0-5.79-5.72A5.78,5.78,0,0,0,309,527.94Z"/><path id="_Tracciato_146" data-name="&lt;Tracciato&gt;" class="cls-4" d="M177.79,455.63a5.72,5.72,0,1,0,5.81,5.72A5.77,5.77,0,0,0,177.79,455.63Z"/><path id="_Tracciato_147" data-name="&lt;Tracciato&gt;" class="cls-4" d="M177.79,449.52A5.72,5.72,0,1,0,172,443.8,5.76,5.76,0,0,0,177.79,449.52Z"/><path id="_Tracciato_148" data-name="&lt;Tracciato&gt;" class="cls-4" d="M376.23,488.83a3.85,3.85,0,1,0-3.85,3.8A3.82,3.82,0,0,0,376.23,488.83Z"/><path id="_Tracciato_composto_37" data-name="&lt;Tracciato composto&gt;" class="cls-4" d="M325.6,297.71a12.78,12.78,0,1,0-13-12.78A12.87,12.87,0,0,0,325.6,297.71Zm0-23.2A10.42,10.42,0,1,1,315,284.93,10.5,10.5,0,0,1,325.6,274.51Z"/><path id="_Tracciato_composto_38" data-name="&lt;Tracciato composto&gt;" class="cls-4" d="M415.83,550.35a13,13,0,1,0,12.95-12.77A12.88,12.88,0,0,0,415.83,550.35Zm13-10.42a10.42,10.42,0,1,1-10.57,10.42A10.5,10.5,0,0,1,428.79,539.93Z"/><path id="_Tracciato_composto_39" data-name="&lt;Tracciato composto&gt;" class="cls-4" d="M128.68,308a12.78,12.78,0,1,0-13-12.78A12.89,12.89,0,0,0,128.68,308Zm0-23.2a10.42,10.42,0,1,1-10.56,10.42A10.5,10.5,0,0,1,128.68,284.8Z"/><path id="_Tracciato_149" data-name="&lt;Tracciato&gt;" class="cls-4" d="M128.69,299a3.8,3.8,0,1,0-3.85-3.8A3.82,3.82,0,0,0,128.69,299Z"/><path id="_Tracciato_150" data-name="&lt;Tracciato&gt;" class="cls-4" d="M116.48,331.72a3.88,3.88,0,0,0,1.73-.42l34.62,34.15H262.27V363.1h-45l-19.85-19.58H161.68v2.35h34.7l17.46,17.23h-60L119.9,329.63a3.85,3.85,0,1,0-3.42,2.09Z"/><path id="_Tracciato_151" data-name="&lt;Tracciato&gt;" class="cls-4" d="M442.55,616.86a3.91,3.91,0,0,0-1.61.35l-46.22-45.6L393,573.28l46.17,45.54a3.66,3.66,0,0,0-.5,1.83,3.85,3.85,0,1,0,3.85-3.79Z"/><path id="_Tracciato_composto_40" data-name="&lt;Tracciato composto&gt;" class="cls-4" d="M394.93,676.84V634.93L364.4,604.81V541.14l-30.78-30.36-1.69,1.66L362,542.12V698.3l-19.74,11.24v23.85L362,744.64v106h2.39v-106l6.28-3.58v60.46a3.78,3.78,0,0,0-2.66,3.59,3.85,3.85,0,0,0,7.7,0,3.77,3.77,0,0,0-2.65-3.59V739.7l11.07-6.31V709.54L364.4,698.3V608.14l28.15,27.76v41a3.85,3.85,0,1,0,2.38-.09ZM381.76,732l-10.56,6h-.52v.29l-7.47,4.26L344.66,732V710.9l18.55-10.57,18.55,10.57Z"/><polygon id="_Tracciato_152" data-name="&lt;Tracciato&gt;" class="cls-4" points="-1.53 364.02 4.29 367.5 10.09 370.98 10.24 364.27 10.39 357.57 4.43 360.8 -1.53 364.02"/><polygon id="_Tracciato_153" data-name="&lt;Tracciato&gt;" class="cls-4" points="189.37 492.38 195.19 495.86 201 499.34 201.15 492.63 201.3 485.93 195.34 489.15 189.37 492.38"/><polygon id="_Tracciato_154" data-name="&lt;Tracciato&gt;" class="cls-4" points="414.36 478.33 414.21 485.04 414.06 491.74 420.02 488.51 425.98 485.29 420.17 481.81 414.36 478.33"/><polygon id="_Tracciato_155" data-name="&lt;Tracciato&gt;" class="cls-4" points="302.14 310.03 302.14 300.16 293.48 295.22 284.81 300.16 284.81 310.03 293.47 314.96 302.14 310.03"/><polygon id="_Tracciato_156" data-name="&lt;Tracciato&gt;" class="cls-4" points="225.86 519.11 225.86 525.32 231.31 528.43 236.76 525.32 236.76 519.11 231.31 516 225.86 519.11"/><polygon id="_Tracciato_157" data-name="&lt;Tracciato&gt;" class="cls-4" points="42.71 393.45 42.71 401.95 50.17 406.2 57.63 401.95 57.63 393.45 50.17 389.2 42.71 393.45"/><path id="_Tracciato_composto_41" data-name="&lt;Tracciato composto&gt;" class="cls-4" d="M310.31,481.41l15.29,8.71,15.28-8.71V464l-15.28-8.7L310.31,464Zm.95-16.87,14.34-8.16,14.33,8.16v16.32L325.6,489l-14.34-8.17Z"/><path id="_Tracciato_158" data-name="&lt;Tracciato&gt;" class="cls-4" d="M286.35,511.61V619.28a3.86,3.86,0,1,0,2.39,0V511.61Z"/><path id="_Tracciato_159" data-name="&lt;Tracciato&gt;" class="cls-4" d="M337.62,503.91l91.76,90.52a3.74,3.74,0,0,0-.6,2,3.85,3.85,0,1,0,3.85-3.79,3.93,3.93,0,0,0-1.41.27l-69.34-68.41h24l17.61,17.37,1.68-1.67-18.3-18.05H359.49l-20.18-19.91Z"/><polygon id="_Tracciato_160" data-name="&lt;Tracciato&gt;" class="cls-4" points="243.08 339.9 243.23 333.2 237.27 336.43 231.31 339.66 237.12 343.14 242.93 346.61 243.08 339.9"/><polygon id="_Tracciato_161" data-name="&lt;Tracciato&gt;" class="cls-4" points="259.34 339.9 259.49 333.2 253.53 336.43 247.57 339.66 253.38 343.13 259.19 346.61 259.34 339.9"/><polygon id="_Tracciato_162" data-name="&lt;Tracciato&gt;" class="cls-4" points="376.75 284.93 373.5 279.01 370.25 273.08 366.75 278.86 363.25 284.64 370 284.78 376.75 284.93"/><polygon id="_Tracciato_163" data-name="&lt;Tracciato&gt;" class="cls-4" points="376.75 301.09 373.5 295.16 370.26 289.24 366.75 295.02 363.25 300.79 370 300.94 376.75 301.09"/><polygon id="_Tracciato_164" data-name="&lt;Tracciato&gt;" class="cls-4" points="21.16 337.31 23.01 335.82 2.83 311.31 -70.66 311.31 -70.66 313.66 1.69 313.66 21.16 337.31"/><polygon id="_Tracciato_165" data-name="&lt;Tracciato&gt;" class="cls-4" points="300.38 574.09 300.38 583.96 309.05 588.89 317.71 583.96 317.71 574.09 309.05 569.15 300.38 574.09"/><polygon id="_Tracciato_166" data-name="&lt;Tracciato&gt;" class="cls-4" points="33.44 325.16 42.1 320.22 42.1 310.35 33.44 305.42 24.77 310.35 24.78 320.22 33.44 325.16"/><path id="_Tracciato_composto_42" data-name="&lt;Tracciato composto&gt;" class="cls-4" d="M117.67,414V368.74L77.91,391.38Zm-2.38-22.64V410l-32.6-18.57,32.6-18.56Z"/></g><path id="_Tracciato_167" data-name="&lt;Tracciato&gt;" class="cls-4" d="M57,344.9a9.32,9.32,0,1,1,9.32,9.19A9.24,9.24,0,0,1,57,344.9Z"/><path id="_Tracciato_168" data-name="&lt;Tracciato&gt;" class="cls-4" d="M309.33,375.35a16.26,16.26,0,1,1,16.27,16A16.16,16.16,0,0,1,309.33,375.35Z"/><polygon id="_Tracciato_169" data-name="&lt;Tracciato&gt;" class="cls-4" points="318.92 468.91 325.6 465.11 332.26 468.91 332.26 476.5 325.6 480.3 318.92 476.5 318.92 468.91"/><polygon id="_Tracciato_170" data-name="&lt;Tracciato&gt;" class="cls-4" points="96.89 391.38 103.03 387.89 109.17 384.39 109.17 391.38 109.17 398.38 103.03 394.88 96.89 391.38"/></g></g></g></g><path id="_Tracciato_171" data-name="&lt;Tracciato&gt;" class="cls-2" d="M255.48,305.75v0l-.09.12.18-.1Z"/><path id="_Tracciato_172" data-name="&lt;Tracciato&gt;" class="cls-2" d="M255.48,305.75v0l-.09.12.18-.1Z"/></svg>